<svg width="26" height="26" viewBox="0 0 26 26" fill="none" xmlns="http://www.w3.org/2000/svg">
<g clip-path="url(#clip0_297_237)">
<path d="M20.0941 0.249846C19.7931 0.244649 19.4941 0.300046 19.2149 0.412743C18.9358 0.525439 18.6821 0.693132 18.4691 0.905846L17.4691 1.93685L24.0621 8.56185L25.0621 7.53185C25.2778 7.31646 25.4489 7.06066 25.5657 6.77909C25.6824 6.49751 25.7425 6.19567 25.7425 5.89085C25.7425 5.58602 25.6824 5.28419 25.5657 5.00261C25.4489 4.72103 25.2778 4.46523 25.0621 4.24985L21.7501 0.936846C21.3099 0.498927 20.715 0.252095 20.0941 0.249846ZM16.3441 2.84385L14.7811 4.34385L21.6561 11.2188L23.2501 9.74985L16.3441 2.84385ZM13.7801 5.43785L2.97008 16.1548C2.84726 16.2177 2.73918 16.3059 2.65299 16.4137C2.5668 16.5214 2.50445 16.6462 2.47008 16.7798L0.156078 24.6248C0.103832 24.7943 0.0987824 24.9748 0.141474 25.1469C0.184166 25.319 0.272982 25.4762 0.398364 25.6016C0.523746 25.7269 0.680947 25.8158 0.853047 25.8584C1.02515 25.9011 1.20563 25.8961 1.37508 25.8438L9.21908 23.5308C9.39713 23.5043 9.56435 23.4289 9.7022 23.3131C9.84005 23.1973 9.94315 23.0456 10.0001 22.8748L20.6561 12.3118L19.1881 10.8438L8.25008 21.8128L3.84408 23.0928L2.90608 22.1558L4.25008 17.5628L15.0941 6.74985L13.7801 5.43785ZM16.1551 7.84385L5.18708 18.8438L6.78008 19.1868L6.99908 20.6568L17.9991 9.68685L16.1551 7.84385Z" fill="white"/>
</g>
<defs>
<clipPath id="clip0_297_237">
<rect width="26" height="26" fill="white"/>
</clipPath>
</defs>
</svg>
