<svg width="109" height="111" viewBox="0 0 109 111" fill="none" xmlns="http://www.w3.org/2000/svg">
<path d="M105.526 50.6438H97.623V94.6969H11.3768V22.755H54.4999V13.875H11.3768C10.2761 13.9102 9.19343 14.1696 8.19281 14.6379C7.19219 15.1062 6.29386 15.774 5.55088 16.6017C4.80789 17.4295 4.23531 18.4005 3.86694 19.4573C3.49857 20.5142 3.34188 21.6355 3.40613 22.755V94.6969C3.36975 95.7994 3.54712 96.8984 3.92809 97.9311C4.30907 98.9637 4.88618 99.9098 5.62644 100.715C6.36669 101.521 7.25557 102.169 8.24225 102.625C9.22893 103.08 10.2941 103.333 11.3768 103.369H97.623C98.7057 103.333 99.7708 103.08 100.758 102.625C101.744 102.169 102.633 101.521 103.373 100.715C104.114 99.9098 104.691 98.9637 105.072 97.9311C105.453 96.8984 105.63 95.7994 105.594 94.6969L105.526 50.6438Z" fill="white"/>
<path d="M71.9399 19.9107L42.3737 50.0889L39.3762 53.1414L38.8312 53.6964L28.4762 75.6189C27.7814 77.0263 27.54 78.621 27.7861 80.1762C28.0323 81.7314 28.7535 83.168 29.8474 84.2819C30.9412 85.3958 32.3519 86.1303 33.8791 86.3809C35.4063 86.6316 36.9722 86.3857 38.3543 85.6782L59.7456 75.0639L63.3562 71.387L66.2855 68.4039L95.8518 38.1564L98.9174 35.1039L100.621 33.3695C103.399 30.5341 104.96 26.6917 104.96 22.6857C104.96 18.6797 103.399 14.8374 100.621 12.002C97.8494 9.20043 94.1023 7.62921 90.1974 7.63136C86.2719 7.62597 82.5024 9.19631 79.7062 12.002L74.9374 16.7889L71.8718 19.8414L71.9399 19.9107ZM37.5368 76.3126L45.5756 59.4545L54.0912 68.1957L37.5368 76.3126ZM51.1618 53.0026L77.7306 25.877L86.5868 34.9651L60.2906 62.4376L51.1618 53.0026ZM89.8568 16.1645C90.6801 16.1616 91.4956 16.3258 92.2559 16.6474C93.0162 16.969 93.7059 17.4416 94.2849 18.0376C95.4623 19.2461 96.1229 20.8794 96.1229 22.5817C96.1229 24.284 95.4623 25.9173 94.2849 27.1257L92.5818 28.7907L83.7256 19.772L85.4287 18.0376C86.0435 17.4211 86.7817 16.9469 87.593 16.6476C88.4042 16.3483 89.2694 16.2308 90.1293 16.3032L89.8568 16.1645Z" fill="white"/>
</svg>
