<svg width="221" height="221" viewBox="0 0 221 221" fill="none" xmlns="http://www.w3.org/2000/svg">
<rect width="221" height="221" rx="30" fill="white"/>
<g clip-path="url(#clip0_295_221)">
<path d="M155.446 67.6374L178.622 90.0112C179.599 90.9538 179.599 92.4916 178.622 93.4342L122.506 147.608L98.6611 150.163C95.475 150.51 92.7771 147.905 93.1368 144.83L95.7833 121.811L151.9 67.6374C152.876 66.6948 154.469 66.6948 155.446 67.6374ZM197.071 61.9571L184.532 49.8524C180.626 46.0821 174.28 46.0821 170.349 49.8524L161.253 58.6333C160.276 59.5758 160.276 61.1137 161.253 62.0563L184.429 84.4301C185.406 85.3727 186.999 85.3727 187.975 84.4301L197.071 75.6493C200.976 71.8541 200.976 65.7274 197.071 61.9571ZM150.667 132.874V158.125H68.4444V78.7499H127.49C128.312 78.7499 129.083 78.4274 129.674 77.8817L139.952 67.9598C141.905 66.0747 140.517 62.8749 137.768 62.8749H64.3333C57.5243 62.8749 52 68.2079 52 74.7811V162.094C52 168.667 57.5243 174 64.3333 174H154.778C161.587 174 167.111 168.667 167.111 162.094V122.952C167.111 120.298 163.797 118.983 161.844 120.843L151.566 130.765C151.001 131.336 150.667 132.08 150.667 132.874Z" fill="#9A9A9A"/>
</g>
<defs>
<clipPath id="clip0_295_221">
<rect width="148" height="127" fill="white" transform="translate(52 47)"/>
</clipPath>
</defs>
</svg>
