<svg width="784" height="83" viewBox="0 0 784 83" fill="none" xmlns="http://www.w3.org/2000/svg">
<path d="M38.6086 59V42.7C38.6086 41.4333 38.4086 40.6 38.0086 40.2C37.6753 39.8 36.8419 39.6 35.5086 39.6H8.50859C3.24193 39.6 0.608594 36.9667 0.608594 31.7V13.7C0.608594 8.43333 3.24193 5.8 8.50859 5.8H46.5086C51.7753 5.8 54.4086 8.43333 54.4086 13.7V24.8H38.3086V14.8C38.3086 13.4667 38.1086 12.6333 37.7086 12.3C37.3086 11.9 36.4753 11.7 35.2086 11.7H19.9086C18.5753 11.7 17.7086 11.9 17.3086 12.3C16.9753 12.6333 16.8086 13.4667 16.8086 14.8V30.6C16.8086 31.9333 16.9753 32.8 17.3086 33.2C17.7086 33.5333 18.5753 33.7 19.9086 33.7H46.8086C52.0753 33.7 54.7086 36.3333 54.7086 41.6V60.1C54.7086 65.3667 52.0753 68 46.8086 68H8.80859C3.54193 68 0.908594 65.3667 0.908594 60.1V49H17.0086V59C17.0086 60.3333 17.1753 61.2 17.5086 61.6C17.9086 61.9333 18.7753 62.1 20.1086 62.1H35.5086C36.8419 62.1 37.6753 61.9333 38.0086 61.6C38.4086 61.2 38.6086 60.3333 38.6086 59ZM84.7031 68H69.2031V19.5H84.7031V68ZM68.9031 11.4V0.999998H85.0031V11.4H68.9031ZM135.248 59V28.5C135.248 27.2333 135.048 26.4 134.648 26C134.248 25.6 133.415 25.4 132.148 25.4H117.848C116.515 25.4 115.648 25.6 115.248 26C114.915 26.4 114.748 27.2333 114.748 28.5V59C114.748 60.3333 114.915 61.2 115.248 61.6C115.648 61.9333 116.515 62.1 117.848 62.1H132.148C133.415 62.1 134.248 61.9333 134.648 61.6C135.048 61.2 135.248 60.3333 135.248 59ZM107.248 19.5H142.748C148.015 19.5 150.648 22.1333 150.648 27.4V60.1C150.648 65.3667 148.015 68 142.748 68H107.248C101.982 68 99.3484 65.3667 99.3484 60.1V27.4C99.3484 22.1333 101.982 19.5 107.248 19.5ZM200.995 59V28.5C200.995 27.2333 200.795 26.4 200.395 26C199.995 25.6 199.161 25.4 197.895 25.4H183.895C181.495 25.4 180.295 26.5 180.295 28.7V58.9C180.295 61.0333 181.495 62.1 183.895 62.1H197.895C199.161 62.1 199.995 61.9333 200.395 61.6C200.795 61.2 200.995 60.3333 200.995 59ZM185.895 19.5H208.495C213.761 19.5 216.395 22.1333 216.395 27.4V60.1C216.395 65.3667 213.761 68 208.495 68H185.895C182.961 68 181.095 67 180.295 65V82.1H164.795V19.5H180.095V23C180.895 20.6667 182.828 19.5 185.895 19.5ZM248.317 62.1H261.817C264.217 62.1 265.417 61.0333 265.417 58.9V28.6C265.417 26.4667 264.217 25.4 261.817 25.4H248.317C246.984 25.4 246.117 25.6 245.717 26C245.384 26.4 245.217 27.2333 245.217 28.5V59C245.217 60.3333 245.384 61.2 245.717 61.6C246.117 61.9333 246.984 62.1 248.317 62.1ZM265.417 19.5H280.817V68H265.417V64.7C264.617 66.9 262.717 68 259.717 68H237.717C232.451 68 229.817 65.3667 229.817 60.1V27.4C229.817 22.1333 232.451 19.5 237.717 19.5H259.717C262.717 19.5 264.617 20.6 265.417 22.8V19.5ZM313.454 62.1H326.954C329.354 62.1 330.554 61.0333 330.554 58.9V28.6C330.554 26.4667 329.354 25.4 326.954 25.4H313.454C312.121 25.4 311.254 25.6 310.854 26C310.521 26.4 310.354 27.2333 310.354 28.5V59C310.354 60.3333 310.521 61.2 310.854 61.6C311.254 61.9333 312.121 62.1 313.454 62.1ZM330.554 1.1H345.954V68H330.554V64.7C329.754 66.9 327.854 68 324.854 68H302.854C297.587 68 294.954 65.3667 294.954 60.1V27.4C294.954 22.1333 297.587 19.5 302.854 19.5H324.854C327.854 19.5 329.754 20.6 330.554 22.8V1.1ZM410.391 -7.15256e-07L393.491 14.8H380.291L394.091 -7.15256e-07H410.391ZM395.991 59V28.5C395.991 27.2333 395.791 26.4 395.391 26C394.991 25.6 394.157 25.4 392.891 25.4H378.591C377.257 25.4 376.391 25.6 375.991 26C375.657 26.4 375.491 27.2333 375.491 28.5V59C375.491 60.3333 375.657 61.2 375.991 61.6C376.391 61.9333 377.257 62.1 378.591 62.1H392.891C394.157 62.1 394.991 61.9333 395.391 61.6C395.791 61.2 395.991 60.3333 395.991 59ZM367.991 19.5H403.491C408.757 19.5 411.391 22.1333 411.391 27.4V60.1C411.391 65.3667 408.757 68 403.491 68H367.991C362.724 68 360.091 65.3667 360.091 60.1V27.4C360.091 22.1333 362.724 19.5 367.991 19.5ZM441.539 68H426.039V19.5H441.539V68ZM425.739 11.4V0.999998H441.839V11.4H425.739ZM482.384 19.4H489.984V26H479.484C474.751 26 472.384 28.5333 472.384 33.6V68H456.884V19.5H472.384V25.4C473.718 21.4 477.051 19.4 482.384 19.4ZM512.893 40.2H534.493V28.5C534.493 27.2333 534.293 26.4 533.893 26C533.56 25.6 532.726 25.4 531.393 25.4H515.993C514.66 25.4 513.793 25.6 513.393 26C513.06 26.4 512.893 27.2333 512.893 28.5V40.2ZM505.393 19.5H541.593C546.86 19.5 549.493 22.1333 549.493 27.4V46.1H512.893V59C512.893 60.3333 513.06 61.2 513.393 61.6C513.793 61.9333 514.66 62.1 515.993 62.1H531.193C532.526 62.1 533.36 61.9333 533.693 61.6C534.093 61.2 534.293 60.3333 534.293 59V53.1H549.293V60.1C549.293 65.3667 546.66 68 541.393 68H505.393C500.126 68 497.493 65.3667 497.493 60.1V27.4C497.493 22.1333 500.126 19.5 505.393 19.5ZM580.641 62.1H594.141C596.541 62.1 597.741 61.0333 597.741 58.9V28.6C597.741 26.4667 596.541 25.4 594.141 25.4H580.641C579.308 25.4 578.441 25.6 578.041 26C577.708 26.4 577.541 27.2333 577.541 28.5V59C577.541 60.3333 577.708 61.2 578.041 61.6C578.441 61.9333 579.308 62.1 580.641 62.1ZM597.741 19.5H613.141V68H597.741V64.7C596.941 66.9 595.041 68 592.041 68H570.041C564.775 68 562.141 65.3667 562.141 60.1V27.4C562.141 22.1333 564.775 19.5 570.041 19.5H592.041C595.041 19.5 596.941 20.6 597.741 22.8V19.5ZM677.178 36.4H662.078V28.5C662.078 27.2333 661.878 26.4 661.478 26C661.145 25.6 660.311 25.4 658.978 25.4H645.778C644.445 25.4 643.578 25.6 643.178 26C642.845 26.4 642.678 27.2333 642.678 28.5V59C642.678 60.3333 642.845 61.2 643.178 61.6C643.578 61.9333 644.445 62.1 645.778 62.1H658.978C660.311 62.1 661.145 61.9333 661.478 61.6C661.878 61.2 662.078 60.3333 662.078 59V51.3H677.178V60.1C677.178 65.3667 674.545 68 669.278 68H635.178C629.911 68 627.278 65.3667 627.278 60.1V27.4C627.278 22.1333 629.911 19.5 635.178 19.5H669.278C674.545 19.5 677.178 22.1333 677.178 27.4V36.4ZM710.702 19.5H732.702C737.968 19.5 740.602 22.1333 740.602 27.4V68H725.202V28.5C725.202 27.2333 725.002 26.4 724.602 26C724.268 25.6 723.435 25.4 722.102 25.4H708.602C706.268 25.4 705.102 26.4667 705.102 28.6V31.5H705.002V68H689.502V1.1H705.002V22.8C705.802 20.6 707.702 19.5 710.702 19.5ZM783.736 25.4H773.036V58.7C773.036 59.9667 773.203 60.8 773.536 61.2C773.936 61.6 774.803 61.8 776.136 61.8H783.636V68H765.436C760.169 68 757.536 65.3667 757.536 60.1V25.4H749.736V19.5H757.536V9.2H773.036V19.5H783.736V25.4Z" fill="white"/>
</svg>
