<svg width="156" height="132" viewBox="0 0 156 132" fill="none" xmlns="http://www.w3.org/2000/svg">
<path d="M94.388 37.5297C94.6203 37.0923 94.7554 36.6155 94.7852 36.128C94.815 35.6406 94.7388 35.1527 94.5612 34.6936C94.3836 34.2344 94.1084 33.8137 93.752 33.4566C93.3956 33.0995 92.9655 32.8135 92.4875 32.6158L19.5132 2.5291C7.90188 -2.2569 -4.08145 8.50168 1.69657 18.5253L26.2746 61.162C28.185 64.4767 28.1987 68.3914 26.3114 71.7122L2.03153 114.519C-3.6764 124.583 8.38174 135.265 19.9593 130.391L47.2318 118.92C50.5063 117.546 53.1688 115.153 54.7648 112.15L94.388 37.5297Z" fill="#E8BF56"/>
<path opacity="0.5" d="M105.183 41.6315C105.627 40.798 106.397 40.1559 107.334 39.8387C108.271 39.5214 109.303 39.5534 110.215 39.9279L147.649 55.355C157.925 59.5885 157.97 72.3602 147.723 76.6653L78.8691 105.619C78.1408 105.925 77.3292 106.014 76.5451 105.873C75.761 105.732 75.0427 105.368 74.4886 104.832C73.9345 104.295 73.5716 103.612 73.4495 102.875C73.3274 102.138 73.4521 101.384 73.8065 100.716L105.183 41.6315Z" fill="#E8BF56"/>
</svg>
