<svg width="322" height="322" viewBox="0 0 322 322" fill="none" xmlns="http://www.w3.org/2000/svg">
<g filter="url(#filter0_d_127_105)">
<rect x="269.77" y="240.999" width="221" height="221" rx="30" transform="rotate(179.8 269.77 240.999)" fill="white"/>
</g>
<path d="M175.388 101.53C175.62 101.092 175.755 100.615 175.785 100.128C175.815 99.6406 175.739 99.1527 175.561 98.6936C175.384 98.2344 175.108 97.8137 174.752 97.4566C174.396 97.0995 173.965 96.8135 173.487 96.6158L100.513 66.5291C88.9019 61.7431 76.9185 72.5017 82.6966 82.5253L107.275 125.162C109.185 128.477 109.199 132.391 107.311 135.712L83.0315 178.519C77.3236 188.583 89.3817 199.265 100.959 194.391L128.232 182.92C131.506 181.546 134.169 179.153 135.765 176.15L175.388 101.53Z" fill="#E8BF56"/>
<path opacity="0.5" d="M186.183 105.631C186.627 104.798 187.397 104.156 188.334 103.839C189.271 103.521 190.303 103.553 191.215 103.928L228.649 119.355C238.925 123.589 238.97 136.36 228.723 140.665L159.869 169.619C159.141 169.925 158.329 170.014 157.545 169.873C156.761 169.732 156.043 169.368 155.489 168.832C154.935 168.295 154.572 167.612 154.45 166.875C154.327 166.138 154.452 165.384 154.806 164.716L186.183 105.631Z" fill="#E8BF56"/>
<defs>
<filter id="filter0_d_127_105" x="0.104492" y="0.104492" width="321.561" height="321.561" filterUnits="userSpaceOnUse" color-interpolation-filters="sRGB">
<feFlood flood-opacity="0" result="BackgroundImageFix"/>
<feColorMatrix in="SourceAlpha" type="matrix" values="0 0 0 0 0 0 0 0 0 0 0 0 0 0 0 0 0 0 127 0" result="hardAlpha"/>
<feOffset dx="2" dy="30"/>
<feGaussianBlur stdDeviation="25"/>
<feComposite in2="hardAlpha" operator="out"/>
<feColorMatrix type="matrix" values="0 0 0 0 1 0 0 0 0 0.942664 0 0 0 0 0.795833 0 0 0 0.5 0"/>
<feBlend mode="normal" in2="BackgroundImageFix" result="effect1_dropShadow_127_105"/>
<feBlend mode="normal" in="SourceGraphic" in2="effect1_dropShadow_127_105" result="shape"/>
</filter>
</defs>
</svg>
