<svg width="155" height="155" viewBox="0 0 155 155" fill="none" xmlns="http://www.w3.org/2000/svg">
<rect width="155" height="155" rx="20" fill="url(#paint0_linear_37_44)"/>
<path d="M44.581 66.2615C46.1779 70.8343 47.7285 75.4217 49.2326 80.0232C53.9695 82.9658 58.671 85.9601 63.3363 89.0054C65.9713 90.74 68.5956 92.5011 71.1754 94.3496C72.459 95.2616 73.7167 96.2065 74.9473 97.1832L75.7101 69.024C72.8265 62.7352 69.2735 56.7288 65.3508 50.9377C61.2692 44.9329 56.8262 39.1598 52.044 33.6477L57.5966 61.8597C60.1913 75.0669 51.9016 66.4138 51.9016 66.4138L39.1091 52.2783C40.2758 54.5086 41.1258 56.873 42.0225 59.2049L44.581 66.2615Z" fill="white"/>
<path d="M31.3465 68.9061L46.6613 78.4123C45.6607 74.4504 44.6272 70.4961 43.561 66.5498L41.5273 59.3571C40.7963 56.9765 40.1163 54.5736 39.1155 52.2762L37.4792 58.5954C36.574 62.075 34.8145 62.205 34.1663 62.1257L15.715 58.4329C18.0673 60.4886 20.7661 62.1298 23.3798 63.8645L31.3465 68.9061ZM78.2856 69.0218L79.0527 97.1811C80.2824 96.2052 81.5387 95.2603 82.8203 94.3475C85.4065 92.499 88.0287 90.7379 90.6637 89.0032C95.3272 85.9575 100.027 82.9632 104.763 80.0211C106.27 75.4201 107.822 70.8326 109.419 66.2593L111.967 59.2007C112.868 56.8689 113.718 54.5025 114.884 52.2742L102.092 66.4096C102.092 66.4096 93.8002 75.0628 96.397 61.8556L101.958 33.6436L101.943 33.6496C97.1618 39.1597 92.7194 44.9307 88.6386 50.9336C84.7286 56.7267 81.1713 62.7331 78.2856 69.0218Z" fill="white"/>
<path d="M75.8249 64.9045L77 21.712L78.1751 64.9045C81.0354 59.8467 84.2887 55.0103 87.7716 50.3648C92.1541 44.5348 96.8889 38.9543 101.952 33.6517L91.6837 38.5531C91.0994 38.7745 89.0721 39.0528 86.3882 34.1656L77 17.0625L67.616 34.1656C64.93 39.0528 62.9049 38.7766 62.3162 38.5531L52.0482 33.6456C57.111 38.9503 61.8464 44.5321 66.2305 50.3628C69.7155 55.0103 72.9668 59.8467 75.8249 64.9045ZM110.439 66.5499C109.372 70.4956 108.34 74.4499 107.343 78.4123L122.654 68.9061L130.622 63.8645C133.234 62.1298 135.935 60.4886 138.287 58.433L119.834 62.1258C119.194 62.205 117.422 62.075 116.521 58.5955L114.884 52.2763C113.879 54.5736 113.204 56.9766 112.473 59.3572L110.439 66.5499ZM35.6624 85.7878C41.8546 86.0377 48.0596 86.1697 54.2561 86.2489C51.5712 84.3322 48.8774 82.4269 46.1747 80.533L30.7387 69.7409L23.0696 64.2789C20.5579 62.4061 17.9526 60.6166 15.715 58.435L21.189 76.9945C21.4206 78.327 21.3186 80.3034 19.0257 81.2642L13.25 83.6977C16.8944 84.6016 20.6663 84.8514 24.402 85.1703C28.1505 85.4466 31.9054 85.6375 35.6624 85.7878ZM96.7604 109.123C92.4721 105.465 88.2859 101.676 83.9806 98.1013C83.1837 98.7594 82.3784 99.4114 81.624 100.086C80.7357 100.888 79.8603 101.709 79.1994 102.513L79.5713 116.181C80.9971 116.196 82.1765 116.222 82.6483 116.261L111.618 120.49C108.892 118.938 106.401 117.026 103.949 115.099C101.512 113.152 99.1155 111.16 96.7604 109.123Z" fill="white"/>
<path d="M129.651 85.6721C125.911 86.121 122.165 86.4806 118.412 86.8035C111.266 87.4109 104.113 87.8821 96.9495 88.2762C95.4768 89.3385 93.9978 90.3907 92.5422 91.4653C90.1653 93.2146 87.8225 95.0058 85.5148 96.8379C89.5991 100.638 93.4793 104.567 97.4892 108.388C99.7157 110.541 101.986 112.652 104.3 114.719C106.629 116.767 108.985 118.798 111.616 120.492L109.147 113.116C108.014 109.74 111.289 106.594 112.643 105.519C119.579 99.966 140.75 83.6978 140.75 83.6978C137.148 84.7682 133.378 85.1846 129.651 85.6721ZM72.3802 100.086C71.6258 99.4115 70.8205 98.7615 70.0236 98.1013C65.7162 101.676 61.5321 105.465 57.2438 109.123C54.8863 111.158 52.4882 113.15 50.0507 115.097C47.5985 117.024 45.1122 118.938 42.3816 120.488L71.3517 116.259C71.8298 116.218 73.0071 116.194 74.433 116.179L74.8048 102.511C74.1397 101.709 73.2642 100.888 72.3802 100.086Z" fill="white"/>
<path d="M123.261 69.7409L107.825 80.5329C105.124 82.4289 102.43 84.3343 99.7439 86.2489C105.945 86.1697 112.145 86.0376 118.342 85.7878C122.099 85.6375 125.849 85.4465 129.598 85.1683C133.334 84.8514 137.106 84.6015 140.75 83.6956L134.976 81.2601C132.686 80.2993 132.577 78.325 132.813 76.9904L138.287 58.4309C136.049 60.6125 133.44 62.402 130.928 64.2748L123.261 69.7409ZM56.5086 108.385C60.5185 104.565 64.3988 100.638 68.4872 96.8358C66.1922 95.0076 63.8356 93.2262 61.4556 91.4631C59.9979 90.3886 58.521 89.3364 57.0526 88.274C49.8908 87.8911 42.7357 87.4001 35.5901 86.8014C31.8356 86.4882 28.0872 86.111 24.3468 85.67C20.6259 85.1845 16.8519 84.7681 13.25 83.6976C13.25 83.6976 34.4214 99.9679 41.3616 105.517C42.7153 106.592 45.9856 109.738 44.8573 113.114L42.3838 120.49C45.0145 118.796 47.3775 116.764 49.7044 114.717C52.0158 112.649 54.2843 110.538 56.5086 108.385ZM74.433 116.181L73.8125 138.937H80.1875L79.5713 116.181C77.9626 116.163 76.0416 116.163 74.433 116.181Z" fill="white"/>
<defs>
<linearGradient id="paint0_linear_37_44" x1="-8.84997e-08" y1="77" x2="155" y2="77" gradientUnits="userSpaceOnUse">
<stop stop-color="#41670F"/>
<stop offset="1" stop-color="#9BC83B"/>
</linearGradient>
</defs>
</svg>
