<svg width="155" height="155" viewBox="0 0 155 155" fill="none" xmlns="http://www.w3.org/2000/svg">
<rect width="155" height="155" rx="20" fill="url(#paint0_linear_284_323)"/>
<path d="M72.6347 69.3376C72.2725 68.4001 63.8088 52.9313 44.9941 42.9001C40.8671 40.697 29.0102 33.6845 21.8522 38.747C16.448 42.0001 20.9277 49.4157 24.359 53.6157C27.6758 57.6751 29.6393 60.722 30.7544 65.8501C31.8791 71.0157 33.8807 78.0001 39.8472 79.5001C42.6113 80.1938 45.4707 79.3876 48.1871 78.872C50.3888 78.4501 54.1727 77.2876 54.7732 78.197C56.1266 80.3532 37.2261 86.0907 35.6916 92.8688C33.8616 100.95 38.694 103.941 42.2015 108.084C45.4802 112.453 43.7169 116.484 47.9965 118.359C53.5818 120.797 60.2918 116.381 63.0844 112.022C67.2686 105.478 67.9072 101.222 71.0335 94.1532C72.0819 91.7813 74.1502 86.7563 74.9318 84.2813C75.3226 83.0251 75.8563 81.0001 75.8468 79.3595C75.6466 75.2813 73.2257 70.8751 72.6347 69.3376Z" fill="white"/>
<path d="M62.6269 60.0843C59.453 56.4656 56.117 53.5593 51.5039 51.2156C49.5691 50.2312 43.7455 51.0093 45.2419 55.1156C46.033 57.2906 53.8295 61.8281 56.6889 63.7031C61.1209 66.6093 70.0803 74.3437 70.7284 73.9687C72.5012 74.25 65.8198 63.7218 62.6269 60.0843ZM56.5555 67.9125C53.7533 65.8687 50.3792 63.5156 46.7097 63.7125C44.1648 63.8437 41.62 65.8218 43.0687 68.475C44.9369 71.8968 50.2362 73.0781 53.7247 73.8937C58.3664 74.9718 67.7928 77.6625 67.7928 76.575C68.0216 75.4968 59.7484 70.2375 56.5555 67.9125ZM43.0306 45.3281C40.3047 45.6281 36.9687 46.3968 35.9966 49.3687C35.3484 51.3562 36.273 54.2531 38.6653 54.5531C40.4191 54.7687 41.1053 53.3625 41.763 52.0687C42.5922 50.4281 44.0409 49.4437 45.2609 48.1218C47.1481 46.0875 45.0226 45.3281 43.0306 45.3281ZM25.3311 41.6437C27.1992 40.7812 28.648 40.8562 30.9926 41.2875C32.0506 41.4843 35.0434 42.1218 35.3294 43.425C35.5486 44.4187 33.1658 45.6562 32.5939 46.3031C31.6503 47.3625 31.1642 48.5437 30.5733 49.8187C29.6106 51.8906 26.065 47.9062 25.6933 47.3625C25.2072 46.6593 24.1016 44.7468 24.1873 43.7812C24.2445 43.0593 24.6639 42.0375 25.3311 41.6437ZM36.5303 57.5343C38.3412 57.9562 40.8003 57.7968 42.392 58.8468C44.7272 60.3843 39.7328 62.925 38.4461 63.4031C33.3564 65.2875 29.3533 56.8312 30.945 54.2343C32.2222 52.0968 34.5859 57.0843 36.5303 57.5343ZM35.4247 66.7218C36.3111 65.4468 40.6192 65.6437 40.1712 68.5406C39.7423 71.3531 36.1395 73.0875 35.0911 69.6843C34.7766 68.6718 34.8242 67.6218 35.4247 66.7218ZM38.57 74.5687C38.9989 72.8625 44.9559 71.3625 45.5945 74.8593C46.1187 77.7093 42.5159 77.325 40.3714 76.9218C38.9703 76.6593 38.2364 75.7218 38.57 74.5687Z" fill="white"/>
<path d="M67.6403 83.4469C68.8794 80.8875 57.5563 87.1594 54.1059 90.4594C51.5706 92.8875 49.0925 95.6156 49.9599 99.1594C50.2172 100.219 50.8081 101.381 51.9519 101.672C53.1719 101.981 54.4014 101.194 55.2974 100.453C58.3092 97.9781 60.2822 94.2375 62.2647 90.9563C63.8755 88.2938 65.5244 85.7437 67.6403 83.4469ZM61.4069 82.5656C64.1042 81.1406 48.3109 83.3813 46.6239 88.8938C46.3094 89.9063 46.4428 91.2 47.8249 90.7219C49.693 90.0844 51.3419 88.3313 52.9145 87.2156C55.5642 85.3406 58.4427 83.9063 61.4069 82.5656ZM68.0788 89.1281C66.2774 92.2969 65.2194 93.7219 62.9224 96.8719C61.2258 99.1875 59.7103 101.972 59.3672 104.85C59.0908 107.137 61.3306 106.631 62.3314 105.244C64.1424 102.741 65.553 99.8719 66.5919 96.9938C67.5069 94.4156 69.6895 86.9063 68.0788 89.1281ZM39.0656 93.3469C40.2094 91.3969 45.2228 90.3094 45.5278 93.9656C45.747 96.6375 44.1172 98.3813 41.6486 98.2031C40.7241 98.0813 37.7122 95.5781 39.0656 93.3469ZM41.8297 101.597C41.9631 100.359 43.9266 100.172 45.2514 100.387C46.4333 100.584 46.967 101.588 46.6239 102.684C46.3189 103.678 45.6803 104.934 44.5842 104.953C43.307 104.981 41.8297 103.012 41.8297 101.597ZM48.6827 106.153C49.6739 105.009 53.372 103.594 54.4872 105.666C55.3164 107.213 53.6294 109.884 53.1814 111.478C52.762 112.95 51.9614 113.456 50.4174 113.156C48.9114 112.856 47.9774 112.078 47.2244 110.672C46.2808 108.919 47.6342 107.437 48.6827 106.153ZM56.5745 110.062C55.7644 110.503 55.6309 111.994 56.1552 112.987C56.6413 113.916 57.8708 113.691 58.5856 113.184C59.3386 112.65 60.0534 111.478 59.5578 110.559C59.0622 109.641 57.5086 109.706 56.5745 110.062Z" fill="white"/>
<path d="M81.3654 69.3376C81.7275 68.4001 90.1913 52.9313 109.006 42.9001C113.133 40.697 124.99 33.6845 132.148 38.747C137.552 42.0001 133.082 49.4251 129.641 53.6157C126.324 57.6751 124.361 60.722 123.246 65.8501C122.121 71.0157 120.119 78.0001 114.153 79.5001C111.389 80.1938 108.529 79.3876 105.813 78.872C103.611 78.4501 99.8274 77.2876 99.2269 78.197C97.8735 80.3532 116.774 86.0907 118.308 92.8688C120.138 100.95 115.306 103.941 111.799 108.084C108.52 112.453 110.283 116.484 106.004 118.359C100.418 120.797 93.7083 116.381 90.9157 112.022C86.7314 105.478 86.0929 101.222 82.9666 94.1532C81.9182 91.7813 79.8499 86.7563 79.0683 84.2813C78.6775 83.0251 78.1438 81.0001 78.1533 79.3595C78.3535 75.2813 80.7744 70.8751 81.3654 69.3376Z" fill="white"/>
<path d="M91.3731 60.0843C94.547 56.4656 97.883 53.5593 102.496 51.2156C104.431 50.2312 110.255 51.0093 108.758 55.1156C107.967 57.2906 100.17 61.8281 97.3111 63.7031C92.8791 66.6093 83.9197 74.3437 83.2716 73.9687C81.4987 74.25 88.1801 63.7218 91.3731 60.0843ZM97.4445 67.9125C100.247 65.8687 103.621 63.5156 107.29 63.7125C109.835 63.8437 112.38 65.8218 110.931 68.475C109.063 71.8968 103.764 73.0781 100.275 73.8937C95.6336 74.9718 86.2072 77.6625 86.2072 76.575C85.9784 75.4968 94.2515 70.2375 97.4445 67.9125ZM110.969 45.3281C113.695 45.6281 117.031 46.3968 118.003 49.3687C118.652 51.3562 117.727 54.2531 115.335 54.5531C113.581 54.7687 112.895 53.3625 112.237 52.0687C111.408 50.4281 109.959 49.4437 108.739 48.1218C106.852 46.0875 108.977 45.3281 110.969 45.3281ZM128.669 41.6437C126.801 40.7812 125.352 40.8562 123.007 41.2875C121.949 41.4843 118.957 42.1218 118.671 43.425C118.451 44.4187 120.834 45.6562 121.406 46.3031C122.35 47.3625 122.836 48.5437 123.427 49.8187C124.389 51.8906 127.935 47.9062 128.307 47.3625C128.793 46.6593 129.898 44.7468 129.813 43.7812C129.755 43.0593 129.336 42.0375 128.669 41.6437ZM117.47 57.5343C115.659 57.9562 113.2 57.7968 111.608 58.8468C109.273 60.3843 114.267 62.925 115.554 63.4031C120.644 65.2875 124.647 56.8312 123.055 54.2343C121.778 52.0968 119.414 57.0843 117.47 57.5343ZM118.575 66.7218C117.689 65.4468 113.381 65.6437 113.829 68.5406C114.258 71.3531 117.86 73.0875 118.909 69.6843C119.223 68.6718 119.176 67.6218 118.575 66.7218ZM115.43 74.5687C115.001 72.8625 109.044 71.3625 108.405 74.8593C107.881 77.7093 111.484 77.325 113.629 76.9218C115.03 76.6593 115.764 75.7218 115.43 74.5687Z" fill="white"/>
<path d="M86.3597 83.4469C85.1206 80.8875 96.4438 87.1594 99.8941 90.4594C102.429 92.8875 104.908 95.6156 104.04 99.1594C103.783 100.219 103.192 101.381 102.048 101.672C100.828 101.981 99.5986 101.194 98.7027 100.453C95.6908 97.9781 93.7178 94.2375 91.7353 90.9563C90.1245 88.2938 88.4756 85.7437 86.3597 83.4469ZM92.5931 82.5656C89.8958 81.1406 105.689 83.3813 107.376 88.8938C107.691 89.9063 107.557 91.2 106.175 90.7219C104.307 90.0844 102.658 88.3313 101.085 87.2156C98.4358 85.3406 95.5574 83.9063 92.5931 82.5656ZM85.9213 89.1281C87.7227 92.2969 88.7806 93.7219 91.0777 96.8719C92.7742 99.1875 94.2897 101.972 94.6328 104.85C94.9092 107.137 92.6694 106.631 91.6686 105.244C89.8577 102.741 88.447 99.8719 87.4081 96.9938C86.4931 94.4156 84.3105 86.9063 85.9213 89.1281ZM114.934 93.3469C113.791 91.3969 108.777 90.3094 108.472 93.9656C108.253 96.6375 109.883 98.3813 112.351 98.2031C113.276 98.0813 116.288 95.5781 114.934 93.3469ZM112.17 101.597C112.037 100.359 110.073 100.172 108.749 100.387C107.567 100.584 107.033 101.588 107.376 102.684C107.681 103.678 108.32 104.934 109.416 104.953C110.693 104.981 112.17 103.012 112.17 101.597ZM105.317 106.153C104.326 105.009 100.628 103.594 99.5128 105.666C98.6836 107.213 100.371 109.884 100.819 111.478C101.238 112.95 102.039 113.456 103.583 113.156C105.089 112.856 106.023 112.078 106.776 110.672C107.719 108.919 106.366 107.437 105.317 106.153ZM97.4255 110.062C98.2356 110.503 98.3691 111.994 97.8449 112.987C97.3588 113.916 96.1292 113.691 95.4144 113.184C94.6614 112.65 93.9466 111.478 94.4422 110.559C94.9378 109.641 96.4914 109.706 97.4255 110.062Z" fill="white"/>
<path d="M77.0001 69.8812C78.5424 69.8812 79.7927 68.6304 79.7927 67.0875C79.7927 65.5445 78.5424 64.2937 77.0001 64.2937C75.4577 64.2937 74.2074 65.5445 74.2074 67.0875C74.2074 68.6304 75.4577 69.8812 77.0001 69.8812Z" fill="white"/>
<path d="M79.7927 76.8186C79.7927 86.7092 79.7927 104.597 77.0001 104.597C74.2074 104.597 74.2074 86.7092 74.2074 76.8186C74.2074 66.928 75.456 68.7655 77.0001 68.7655C78.5441 68.7655 79.7927 66.928 79.7927 76.8186Z" fill="white"/>
<path d="M76.2947 65.4001C76.1327 64.7907 73.5211 50.5501 63.256 44.0251C63.2179 43.997 62.2552 43.3501 61.1305 43.3501C60.0249 43.3501 58.8525 44.4376 58.8525 45.5251C58.8525 46.6126 59.7485 47.5032 60.8636 47.5032C61.5785 47.5032 62.5888 46.5657 63.2369 47.1282C72.0914 52.7438 74.9413 65.3251 74.9794 65.4657C75.0843 65.8876 76.4282 65.9064 76.2947 65.4001ZM77.7054 65.4001C77.8674 64.7907 80.4789 50.5501 90.7441 44.0251C90.7822 43.997 91.7449 43.3501 92.8696 43.3501C93.9752 43.3501 95.1475 44.4376 95.1475 45.5251C95.1475 46.6126 94.2516 47.5032 93.1364 47.5032C92.4216 47.5032 91.4113 46.5657 90.7632 47.1282C81.9086 52.7438 79.0588 65.3251 79.0207 65.4657C78.9158 65.8876 77.5719 65.9064 77.7054 65.4001Z" fill="white"/>
<defs>
<linearGradient id="paint0_linear_284_323" x1="-8.84997e-08" y1="77" x2="155" y2="77" gradientUnits="userSpaceOnUse">
<stop stop-color="#974416"/>
<stop offset="1" stop-color="#E65100"/>
</linearGradient>
</defs>
</svg>
