<svg width="255" height="255" viewBox="0 0 255 255" fill="none" xmlns="http://www.w3.org/2000/svg">
<g filter="url(#filter0_d_127_439)">
<rect x="48" y="40" width="155" height="155" rx="20" fill="url(#paint0_linear_127_439)"/>
</g>
<path d="M82.6321 74.0081V88.3967C95.2122 93.8804 113.695 114.225 109.733 120.202C105.294 122.214 100.458 123.915 94.9758 125.585C94.3657 125.707 93.7734 125.886 93.2083 126.116C93.1638 126.129 93.1208 126.141 93.0763 126.154L93.0896 126.167C89.3234 127.749 86.6816 131.537 86.5146 135.367C86.2482 135.67 86.0084 135.992 85.7977 136.331C83.1142 140.645 81.5193 145.962 83.2794 150.888C85.0391 155.814 90.267 159.811 99.5957 161.31L106.373 162.404L101.384 158.004C96.7975 153.963 96.0868 148.818 97.8981 144.845C102.032 144.37 105.304 141.26 106.519 137.618C106.525 137.601 106.527 137.584 106.533 137.566C108.382 133.182 111.274 129.24 115.857 127.901C120.799 126.456 135.769 131.998 143.223 143.583C143.913 145.59 145.442 147.435 148.031 148.765C149.56 149.551 151.057 149.946 152.477 150.034C154.265 151.613 156.063 153.699 157.376 155.986C159.215 159.19 160.102 162.721 159.206 165.969L157.494 172.167L162.607 167.891C169.652 162 171.864 155.925 170.943 150.59C170.081 145.596 166.751 141.468 163.192 138.259C162.769 135.75 161.194 133.386 158.112 131.802C156.298 130.87 154.517 130.494 152.845 130.547C152.606 130.556 152.366 130.573 152.128 130.599C148.637 130.623 144.599 130.022 140.961 128.807C136.021 125.535 136.348 122.409 140.425 120.377C146.534 119.833 152.575 121.641 157.347 123.942C157.805 124.262 158.286 124.552 158.788 124.808C163.701 127.334 168.268 125.874 171.103 122.874C172.838 123.098 174.565 123.826 176.252 124.983C178.707 126.666 180.975 129.255 182.654 132.184L184.95 136.195L186.467 131.873C189.398 123.503 188.032 117.338 184.171 113.59C180.792 110.31 175.931 108.997 171.18 108.848C170.943 108.84 170.707 108.843 170.47 108.841C169.965 108.468 169.428 108.135 168.863 107.845C167.048 106.913 165.267 106.537 163.596 106.59C162.278 106.632 161.028 106.944 159.887 107.457V107.444C152.868 110.609 146.032 112.111 139.146 113.248C137.363 112.619 136.795 111.38 138.026 109.223C142.238 105.463 147.178 102.431 152.171 100.865C155.327 100.474 157.975 98.5454 159.574 96.0252C161.464 95.4985 163.595 95.1613 165.67 95.1776C169.091 95.2052 172.258 96.1144 174.444 98.3224L179.175 103.103L178.027 96.6983C176.507 88.2042 172.544 83.4445 167.575 81.604C165.712 80.9134 163.789 80.6248 161.87 80.614C159.184 80.5985 156.515 81.1303 154.049 81.8755C153.098 81.5873 152.162 81.4407 151.259 81.4229C147 81.338 143.397 84.0509 141.712 87.5173C141.711 87.522 141.707 87.526 141.706 87.5305C141.476 88.0066 141.283 88.4974 141.128 88.9992C139.814 92.1813 138.233 95.1836 136.404 98.005C128.62 104.471 121.242 101.939 115.544 94.7961C111.137 88.9205 107.257 81.2376 105.044 74.0081H82.6321ZM161.8 84.5087C163.3 84.5087 164.739 84.7199 166.037 85.201C168.676 86.1786 171.068 88.2572 172.669 92.5893C170.448 91.7171 168.044 91.3273 165.704 91.3086C162.762 91.2852 159.905 91.8103 157.389 92.6284C155.786 93.0996 154.788 93.605 154.341 93.8251C153.911 94.0367 154.062 94.0329 153.604 93.6243C153.146 93.216 152.547 92.2237 152.275 91.0819C152.002 89.9401 152.025 88.6731 152.351 87.75C152.678 86.827 153.151 86.2794 154.091 85.9579H154.097V85.9517C156.624 85.0863 159.3 84.5087 161.8 84.5087ZM170.171 112.71C174.444 112.708 178.652 113.83 181.164 116.269C183.297 118.339 184.528 121.488 183.62 126.484C182.176 124.716 180.552 123.126 178.722 121.872C175.632 119.752 171.936 118.514 168.104 119.057C167.41 119.155 167.204 119.028 166.817 118.565C166.429 118.103 166.102 117.207 166.1 116.269C166.098 115.33 166.404 114.394 166.914 113.778C167.425 113.161 168.055 112.768 169.314 112.723C169.599 112.713 169.886 112.711 170.171 112.711L170.171 112.71ZM92.1857 136.758C92.8714 136.777 93.6274 136.969 94.3009 137.301C95.1982 137.745 95.8973 138.431 96.1512 138.958C96.4054 139.484 96.4362 139.698 96.0122 140.213C92.4497 144.542 91.7633 150.724 94.7253 156.122C90.2693 154.531 88.1355 152.196 87.2313 149.665C86.0098 146.247 87.1169 141.939 89.4022 138.265C90.031 137.254 90.7003 136.926 91.5308 136.796C91.7471 136.764 91.9664 136.751 92.1854 136.758L92.1857 136.758ZM157.771 139.714C158.423 139.703 158.989 139.901 159.636 140.459C163.093 143.436 166.14 147.194 166.831 151.198C167.356 154.24 166.692 157.568 163.567 161.317C163.231 158.791 162.306 156.353 161.049 154.161C158.875 150.374 155.774 147.23 152.776 145.246C152.29 144.925 152.256 144.768 152.407 144.05C152.557 143.331 153.171 142.279 154.07 141.436C154.968 140.592 156.114 139.972 157.082 139.792C157.325 139.747 157.554 139.719 157.771 139.714Z" fill="white"/>
<defs>
<filter id="filter0_d_127_439" x="0" y="0" width="255" height="255" filterUnits="userSpaceOnUse" color-interpolation-filters="sRGB">
<feFlood flood-opacity="0" result="BackgroundImageFix"/>
<feColorMatrix in="SourceAlpha" type="matrix" values="0 0 0 0 0 0 0 0 0 0 0 0 0 0 0 0 0 0 127 0" result="hardAlpha"/>
<feOffset dx="2" dy="10"/>
<feGaussianBlur stdDeviation="25"/>
<feComposite in2="hardAlpha" operator="out"/>
<feColorMatrix type="matrix" values="0 0 0 0 0.771354 0 0 0 0 0.771354 0 0 0 0 0.771354 0 0 0 0.5 0"/>
<feBlend mode="normal" in2="BackgroundImageFix" result="effect1_dropShadow_127_439"/>
<feBlend mode="normal" in="SourceGraphic" in2="effect1_dropShadow_127_439" result="shape"/>
</filter>
<linearGradient id="paint0_linear_127_439" x1="48" y1="117" x2="203" y2="117" gradientUnits="userSpaceOnUse">
<stop stop-color="#111A75"/>
<stop offset="1" stop-color="#3B48C8"/>
</linearGradient>
</defs>
</svg>
