<svg width="255" height="255" viewBox="0 0 255 255" fill="none" xmlns="http://www.w3.org/2000/svg">
<g filter="url(#filter0_d_37_43)">
<rect x="48" y="40" width="155" height="155" rx="20" fill="url(#paint0_linear_37_43)"/>
</g>
<path d="M115.912 61.0002C115.171 61.0029 114.43 61.0229 113.69 61.0602C82.889 62.6271 61.378 89.4491 63.096 116.965C65.3085 152.38 101.061 177.055 137.772 174.865H137.779C155.61 173.799 172.647 166.842 185.877 155.783L187 154.846L186.58 153.497L178.865 128.89L178.551 127.886L177.524 127.466L156.302 118.75C160.075 112.884 162.092 105.964 161.731 98.9476C160.619 77.3675 140.243 61.892 118.133 61.0381C117.396 61.0094 116.652 60.9971 115.912 61.0002ZM115.944 65.4822C116.247 65.4805 116.554 65.4858 116.856 65.4894L115.071 76.2223L114.999 76.642L115.039 76.7922C108.129 77.2973 101.195 79.5511 95.4253 83.6128L91.7093 72.2731C98.1848 68.3943 105.714 65.9542 113.957 65.5347C114.62 65.5006 115.283 65.4858 115.944 65.4822ZM121.695 65.8194C131.588 67.0378 140.825 71.4852 147.36 78.1413L138.57 82.9237L138.474 82.976C133.453 79.1618 126.874 77.0543 119.967 76.725L119.91 76.5L121.696 65.8199L121.695 65.8194ZM87.5733 75.0533L91.2812 86.3858L91.4425 86.8881C87.6581 90.5346 84.6659 95.1746 82.9523 100.829C82.7778 101.405 82.6201 101.978 82.4676 102.545L72.006 94.5781C75.4105 86.9471 80.7623 80.1516 87.573 75.0535L87.5733 75.0533ZM150.421 81.6787C154.197 86.6753 156.571 92.6064 156.908 99.1574C156.915 99.2821 156.92 99.4078 156.924 99.5323L147.659 100.222C147.627 99.7242 147.59 99.2239 147.529 98.7226C146.927 93.7291 144.939 89.5611 142.012 86.2436L150.421 81.6787H150.421ZM120.403 92.4572C121.009 92.4663 121.609 92.5172 122.205 92.5994L121.825 102.02C120.722 102.162 119.653 102.479 118.666 102.957L107.365 98.6852C110.277 95.0851 114.642 92.6133 119.757 92.4644C119.972 92.4571 120.188 92.4547 120.403 92.4572ZM126.987 94.0984C130.704 96.0021 133.406 99.4138 133.506 103.535C133.543 105.078 133.134 106.655 132.415 108.032C132.025 106.98 131.428 106.004 130.654 105.153C129.548 103.931 128.113 103.003 126.494 102.462L126.648 102.47L126.987 94.0982L126.987 94.0984ZM70.2614 99.0452L81.3853 107.53C80.3763 113.709 80.7209 119.317 82.153 124.311L68.6703 122.737C68.2976 120.741 68.0468 118.726 67.9191 116.703C67.543 110.678 68.3819 104.689 70.2617 99.0449L70.2614 99.0452ZM104.974 102.613L114.805 106.345C113.58 108.252 113.166 110.505 113.601 112.656L106.145 118.682C104.589 116.099 103.643 113.172 103.519 110.003C103.42 107.453 103.948 104.924 104.973 102.613L104.974 102.613ZM156.731 104.037C155.864 110.989 152.432 117.536 147.231 122.318L141.568 117.063C145.024 113.88 147.01 109.527 147.562 104.726L156.73 104.036L156.731 104.037ZM115.629 116.958C117.567 119.656 120.793 121.483 124.192 122.122L124.911 129.887C118.751 129.248 112.971 126.501 108.973 122.348L115.629 116.958ZM137.674 119.792L143.523 125.218C139.563 127.837 134.898 129.542 129.757 129.932L129.055 122.257C132.376 121.94 135.245 121.074 137.674 119.791L137.674 119.792ZM69.7612 127.384L83.9059 129.033C86.4609 134.58 90.4662 139.216 95.4333 142.884L81.4907 148.257C76.0855 142.23 72.0022 135.188 69.7612 127.384ZM174.413 131.086L174.535 131.139L181.49 153.339C173.659 159.633 164.494 164.439 154.686 167.348L156.908 146.473L156.948 146.099C163.718 142.55 169.758 137.573 174.413 131.086H174.413ZM100.151 145.927C106.932 149.721 114.957 152.012 123.311 152.68L111.937 167.31C101.691 164.164 92.3403 158.819 84.9154 151.788L100.151 145.927ZM151.843 148.452L149.686 168.652C145.682 169.555 141.593 170.144 137.464 170.391C130.473 170.808 123.521 170.181 116.864 168.637L128.667 153.444L129.111 152.875C136.818 152.798 144.626 151.356 151.843 148.452V148.452Z" fill="white"/>
<defs>
<filter id="filter0_d_37_43" x="0" y="0" width="255" height="255" filterUnits="userSpaceOnUse" color-interpolation-filters="sRGB">
<feFlood flood-opacity="0" result="BackgroundImageFix"/>
<feColorMatrix in="SourceAlpha" type="matrix" values="0 0 0 0 0 0 0 0 0 0 0 0 0 0 0 0 0 0 127 0" result="hardAlpha"/>
<feOffset dx="2" dy="10"/>
<feGaussianBlur stdDeviation="25"/>
<feComposite in2="hardAlpha" operator="out"/>
<feColorMatrix type="matrix" values="0 0 0 0 0.771354 0 0 0 0 0.771354 0 0 0 0 0.771354 0 0 0 0.5 0"/>
<feBlend mode="normal" in2="BackgroundImageFix" result="effect1_dropShadow_37_43"/>
<feBlend mode="normal" in="SourceGraphic" in2="effect1_dropShadow_37_43" result="shape"/>
</filter>
<linearGradient id="paint0_linear_37_43" x1="48" y1="117" x2="203" y2="117" gradientUnits="userSpaceOnUse">
<stop stop-color="#111A75"/>
<stop offset="1" stop-color="#3B48C8"/>
</linearGradient>
</defs>
</svg>
