<svg width="155" height="155" viewBox="0 0 155 155" fill="none" xmlns="http://www.w3.org/2000/svg">
<rect width="155" height="155" rx="20" fill="url(#paint0_linear_127_445)"/>
<path d="M98.8083 34.7271C92.4837 34.7271 87.3649 39.9516 87.3649 46.3982C87.3649 50.2751 89.2598 53.9102 92.4344 56.0759C93.8126 71.7766 91.2778 85.5245 79.2438 87.0327C64.429 88.2315 61.2297 73.8456 58.4243 60.1557C60.6145 57.12 60.6883 52.9048 58.5719 49.0763C55.2743 43.1227 47.8422 39.9246 41.9458 41.9374C36.0593 43.9484 33.9552 50.3911 37.243 56.3466C39.5661 60.5425 44.077 63.5202 48.8266 64.0036C57.1692 75.1411 66.4962 93.4716 61.3774 98.847C58.5473 101.786 53.3301 100.858 47.6946 98.0735C48.6051 94.9218 46.5872 91.3833 42.5734 89.0436C36.9772 85.7759 29.3335 85.8532 25.4969 89.1983C21.6579 92.5434 23.0926 97.8995 28.6962 101.167C33.0717 103.7 38.8672 104.28 43.0779 102.598C59.7778 108.96 73.0669 121.837 86.2821 120.116C105.034 117.68 105.108 97.0487 122.778 91.1319C126.149 92.8915 131.022 92.7368 135.009 90.7259C140.226 88.0768 142.17 83.1462 139.365 79.7237C136.559 76.2819 130.038 75.6438 124.796 78.2929C120.883 80.2845 118.668 83.6682 119.259 86.7813C111.9 91.1126 102.401 94.4577 97.4301 92.06C93.4434 90.1458 97.8731 68.4122 102.106 57.5647C106.929 56.0759 110.252 51.5513 110.252 46.3982C110.252 39.9516 105.133 34.7251 98.8083 34.7271Z" fill="white"/>
<defs>
<linearGradient id="paint0_linear_127_445" x1="-8.84997e-08" y1="77" x2="155" y2="77" gradientUnits="userSpaceOnUse">
<stop stop-color="#41670F"/>
<stop offset="1" stop-color="#9BC83B"/>
</linearGradient>
</defs>
</svg>
