<svg width="84" height="55" viewBox="0 0 84 55" fill="none" xmlns="http://www.w3.org/2000/svg">
<g filter="url(#filter0_d_256_71)">
<g clip-path="url(#clip0_256_71)">
<path fill-rule="evenodd" clip-rule="evenodd" d="M4 0H80V47H4V0Z" fill="white"/>
<path fill-rule="evenodd" clip-rule="evenodd" d="M4 0H29.3294V47H4V0Z" fill="#009A49"/>
<path fill-rule="evenodd" clip-rule="evenodd" d="M54.6707 0H80V47H54.6707V0Z" fill="#FF7900"/>
<g clip-path="url(#clip1_256_71)">
<path d="M2 -6.5H82V53.5H2V-6.5Z" fill="#012169"/>
<path d="M11.375 -6.5L41.875 16.125L72.25 -6.5H82V1.25L52 23.625L82 45.875V53.5H72L42 31.125L12.125 53.5H2V46L31.875 23.75L2 1.5V-6.5H11.375Z" fill="white"/>
<path d="M55 28.625L82 48.5V53.5L48.125 28.625H55ZM32 31.125L32.75 35.5L8.75 53.5H2L32 31.125ZM82 -6.5V-6.125L50.875 17.375L51.125 11.875L75.75 -6.5H82ZM2 -6.5L31.875 15.5H24.375L2 -1.25V-6.5Z" fill="#C8102E"/>
<path d="M32.125 -6.5V53.5H52.125V-6.5H32.125ZM2 13.5V33.5H82V13.5H2Z" fill="white"/>
<path d="M2 17.625V29.625H82V17.625H2ZM36.125 -6.5V53.5H48.125V-6.5H36.125Z" fill="#C8102E"/>
</g>
</g>
</g>
<defs>
<filter id="filter0_d_256_71" x="0" y="0" width="84" height="55" filterUnits="userSpaceOnUse" color-interpolation-filters="sRGB">
<feFlood flood-opacity="0" result="BackgroundImageFix"/>
<feColorMatrix in="SourceAlpha" type="matrix" values="0 0 0 0 0 0 0 0 0 0 0 0 0 0 0 0 0 0 127 0" result="hardAlpha"/>
<feOffset dy="4"/>
<feGaussianBlur stdDeviation="2"/>
<feComposite in2="hardAlpha" operator="out"/>
<feColorMatrix type="matrix" values="0 0 0 0 0 0 0 0 0 0 0 0 0 0 0 0 0 0 0.25 0"/>
<feBlend mode="normal" in2="BackgroundImageFix" result="effect1_dropShadow_256_71"/>
<feBlend mode="normal" in="SourceGraphic" in2="effect1_dropShadow_256_71" result="shape"/>
</filter>
<clipPath id="clip0_256_71">
<rect x="4" width="76" height="47" rx="4" fill="white"/>
</clipPath>
<clipPath id="clip1_256_71">
<rect width="80" height="60" fill="white" transform="translate(2 -6.5)"/>
</clipPath>
</defs>
</svg>
