<svg width="155" height="155" viewBox="0 0 155 155" fill="none" xmlns="http://www.w3.org/2000/svg">
<rect width="155" height="155" rx="20" fill="url(#paint0_linear_286_218)"/>
<path d="M119 67.3334C119 65.9189 118.447 64.5623 117.462 63.5621C116.478 62.5619 115.142 62 113.75 62C112.358 62 111.022 62.5619 110.038 63.5621C109.053 64.5623 108.5 65.9189 108.5 67.3334H119ZM45.5001 67.3334C45.5001 65.9189 44.9469 64.5623 43.9624 63.5621C42.9778 62.5619 41.6424 62 40.2501 62C38.8577 62 37.5223 62.5619 36.5377 63.5621C35.5532 64.5623 35.0001 65.9189 35.0001 67.3334H45.5001ZM120.538 81.7707C121.528 82.7422 122.855 83.2798 124.231 83.2676C125.608 83.2555 126.924 82.6946 127.898 81.7057C128.871 80.7169 129.423 79.3792 129.435 77.9808C129.447 76.5825 128.918 75.2353 127.962 74.2294L120.538 81.7707ZM77.0001 30L80.7118 26.2294C79.7273 25.2295 78.3922 24.6678 77.0001 24.6678C75.6079 24.6678 74.2728 25.2295 73.2883 26.2294L77.0001 30ZM26.0383 74.2294C25.5369 74.7214 25.1369 75.3099 24.8618 75.9605C24.5866 76.6112 24.4418 77.3111 24.4357 78.0192C24.4297 78.7274 24.5625 79.4297 24.8265 80.0851C25.0905 80.7406 25.4803 81.336 25.9732 81.8368C26.4662 82.3376 27.0523 82.7336 27.6976 83.0018C28.3428 83.2699 29.0341 83.4049 29.7312 83.3987C30.4283 83.3926 31.1172 83.2454 31.7577 82.9659C32.3982 82.6864 32.9775 82.2801 33.4618 81.7707L26.0383 74.2294ZM50.7501 131.333H103.25V120.667H50.7501V131.333ZM119 115.333V67.3334H108.5V115.333H119ZM45.5001 115.333V67.3334H35.0001V115.333H45.5001ZM127.962 74.2294L80.7118 26.2294L73.2883 33.7707L120.538 81.7707L127.962 74.2294ZM73.2883 26.2294L26.0383 74.2294L33.4618 81.7707L80.7118 33.7707L73.2883 26.2294ZM103.25 131.333C107.427 131.333 111.433 129.648 114.387 126.647C117.341 123.646 119 119.577 119 115.333H108.5C108.5 116.748 107.947 118.104 106.962 119.105C105.978 120.105 104.642 120.667 103.25 120.667V131.333ZM50.7501 120.667C49.3577 120.667 48.0223 120.105 47.0377 119.105C46.0532 118.104 45.5001 116.748 45.5001 115.333H35.0001C35.0001 119.577 36.6594 123.646 39.6131 126.647C42.5668 129.648 46.5729 131.333 50.7501 131.333V120.667Z" fill="white"/>
<defs>
<linearGradient id="paint0_linear_286_218" x1="155" y1="78" x2="1.28328e-06" y2="78" gradientUnits="userSpaceOnUse">
<stop stop-color="#F2C245"/>
<stop offset="1" stop-color="#A47E1D"/>
</linearGradient>
</defs>
</svg>
