<svg width="163" height="163" viewBox="0 0 163 163" fill="none" xmlns="http://www.w3.org/2000/svg">
<g filter="url(#filter0_d_37_44)">
<rect x="4" width="155" height="155" rx="20" fill="url(#paint0_linear_37_44)"/>
</g>
<path d="M48.581 66.2615C50.1779 70.8343 51.7285 75.4217 53.2326 80.0232C57.9695 82.9658 62.671 85.9601 67.3363 89.0054C69.9713 90.74 72.5956 92.5011 75.1754 94.3496C76.459 95.2616 77.7167 96.2065 78.9473 97.1832L79.7101 69.024C76.8265 62.7352 73.2735 56.7288 69.3508 50.9377C65.2692 44.9329 60.8262 39.1598 56.044 33.6477L61.5966 61.8597C64.1913 75.0669 55.9016 66.4138 55.9016 66.4138L43.1091 52.2783C44.2758 54.5086 45.1258 56.873 46.0225 59.2049L48.581 66.2615Z" fill="white"/>
<path d="M35.3465 68.9061L50.6613 78.4123C49.6607 74.4504 48.6272 70.4961 47.561 66.5498L45.5273 59.3571C44.7963 56.9765 44.1163 54.5736 43.1155 52.2762L41.4792 58.5954C40.574 62.075 38.8145 62.205 38.1663 62.1257L19.715 58.4329C22.0673 60.4886 24.7661 62.1298 27.3798 63.8645L35.3465 68.9061ZM82.2856 69.0218L83.0527 97.1811C84.2824 96.2052 85.5387 95.2603 86.8203 94.3475C89.4065 92.499 92.0287 90.7379 94.6637 89.0032C99.3272 85.9575 104.027 82.9632 108.763 80.0211C110.27 75.4201 111.822 70.8326 113.419 66.2593L115.967 59.2007C116.868 56.8689 117.718 54.5025 118.884 52.2742L106.092 66.4096C106.092 66.4096 97.8002 75.0628 100.397 61.8556L105.958 33.6436L105.943 33.6496C101.162 39.1597 96.7194 44.9307 92.6386 50.9336C88.7286 56.7267 85.1713 62.7331 82.2856 69.0218Z" fill="white"/>
<path d="M79.8249 64.9045L81 21.712L82.1751 64.9045C85.0354 59.8467 88.2887 55.0103 91.7716 50.3648C96.1541 44.5348 100.889 38.9543 105.952 33.6517L95.6837 38.5531C95.0994 38.7745 93.0721 39.0528 90.3882 34.1656L81 17.0625L71.616 34.1656C68.93 39.0528 66.9049 38.7766 66.3162 38.5531L56.0482 33.6456C61.111 38.9503 65.8464 44.5321 70.2305 50.3628C73.7155 55.0103 76.9668 59.8467 79.8249 64.9045ZM114.439 66.5499C113.372 70.4956 112.34 74.4499 111.343 78.4123L126.654 68.9061L134.622 63.8645C137.234 62.1298 139.935 60.4886 142.287 58.433L123.834 62.1258C123.194 62.205 121.422 62.075 120.521 58.5955L118.884 52.2763C117.879 54.5736 117.204 56.9766 116.473 59.3572L114.439 66.5499ZM39.6624 85.7878C45.8546 86.0377 52.0596 86.1697 58.2561 86.2489C55.5712 84.3322 52.8774 82.4269 50.1747 80.533L34.7387 69.7409L27.0696 64.2789C24.5579 62.4061 21.9526 60.6166 19.715 58.435L25.189 76.9945C25.4206 78.327 25.3186 80.3034 23.0257 81.2642L17.25 83.6977C20.8944 84.6016 24.6663 84.8514 28.402 85.1703C32.1505 85.4466 35.9054 85.6375 39.6624 85.7878ZM100.76 109.123C96.4721 105.465 92.2859 101.676 87.9806 98.1013C87.1837 98.7594 86.3784 99.4114 85.624 100.086C84.7357 100.888 83.8603 101.709 83.1994 102.513L83.5713 116.181C84.9971 116.196 86.1765 116.222 86.6483 116.261L115.618 120.49C112.892 118.938 110.401 117.026 107.949 115.099C105.512 113.152 103.116 111.16 100.76 109.123Z" fill="white"/>
<path d="M133.651 85.6721C129.911 86.121 126.165 86.4806 122.412 86.8035C115.266 87.4109 108.113 87.8821 100.949 88.2762C99.4768 89.3385 97.9978 90.3907 96.5422 91.4653C94.1653 93.2146 91.8225 95.0058 89.5148 96.8379C93.5991 100.638 97.4793 104.567 101.489 108.388C103.716 110.541 105.986 112.652 108.3 114.719C110.629 116.767 112.985 118.798 115.616 120.492L113.147 113.116C112.014 109.74 115.289 106.594 116.643 105.519C123.579 99.966 144.75 83.6978 144.75 83.6978C141.148 84.7682 137.378 85.1846 133.651 85.6721ZM76.3802 100.086C75.6258 99.4115 74.8205 98.7615 74.0236 98.1013C69.7162 101.676 65.5321 105.465 61.2438 109.123C58.8863 111.158 56.4882 113.15 54.0507 115.097C51.5985 117.024 49.1122 118.938 46.3816 120.488L75.3517 116.259C75.8298 116.218 77.0071 116.194 78.433 116.179L78.8048 102.511C78.1397 101.709 77.2642 100.888 76.3802 100.086Z" fill="white"/>
<path d="M127.261 69.7409L111.825 80.5329C109.124 82.4289 106.43 84.3343 103.744 86.2489C109.945 86.1697 116.145 86.0376 122.342 85.7878C126.099 85.6375 129.849 85.4465 133.598 85.1683C137.334 84.8514 141.106 84.6015 144.75 83.6956L138.976 81.2601C136.686 80.2993 136.577 78.325 136.813 76.9904L142.287 58.4309C140.049 60.6125 137.44 62.402 134.928 64.2748L127.261 69.7409ZM60.5086 108.385C64.5185 104.565 68.3988 100.638 72.4872 96.8358C70.1922 95.0076 67.8356 93.2262 65.4556 91.4631C63.9979 90.3886 62.521 89.3364 61.0526 88.274C53.8908 87.8911 46.7357 87.4001 39.5901 86.8014C35.8356 86.4882 32.0872 86.111 28.3468 85.67C24.6259 85.1845 20.8519 84.7681 17.25 83.6976C17.25 83.6976 38.4214 99.9679 45.3616 105.517C46.7153 106.592 49.9856 109.738 48.8573 113.114L46.3838 120.49C49.0145 118.796 51.3775 116.764 53.7044 114.717C56.0158 112.649 58.2843 110.538 60.5086 108.385ZM78.433 116.181L77.8125 138.937H84.1875L83.5713 116.181C81.9626 116.163 80.0416 116.163 78.433 116.181Z" fill="white"/>
<defs>
<filter id="filter0_d_37_44" x="0" y="0" width="163" height="163" filterUnits="userSpaceOnUse" color-interpolation-filters="sRGB">
<feFlood flood-opacity="0" result="BackgroundImageFix"/>
<feColorMatrix in="SourceAlpha" type="matrix" values="0 0 0 0 0 0 0 0 0 0 0 0 0 0 0 0 0 0 127 0" result="hardAlpha"/>
<feOffset dy="4"/>
<feGaussianBlur stdDeviation="2"/>
<feComposite in2="hardAlpha" operator="out"/>
<feColorMatrix type="matrix" values="0 0 0 0 0 0 0 0 0 0 0 0 0 0 0 0 0 0 0.25 0"/>
<feBlend mode="normal" in2="BackgroundImageFix" result="effect1_dropShadow_37_44"/>
<feBlend mode="normal" in="SourceGraphic" in2="effect1_dropShadow_37_44" result="shape"/>
</filter>
<linearGradient id="paint0_linear_37_44" x1="4" y1="77" x2="159" y2="77" gradientUnits="userSpaceOnUse">
<stop stop-color="#41670F"/>
<stop offset="1" stop-color="#9BC83B"/>
</linearGradient>
</defs>
</svg>
