<svg width="1827" height="568" viewBox="0 0 1827 568" fill="none" xmlns="http://www.w3.org/2000/svg">
<path d="M316.876 219.81H364.476L340.676 151.41L316.876 219.81ZM377.076 256.21L368.476 231.61H312.676L304.076 256.21H272.676L320.276 131.81H361.076L408.876 256.21H377.076ZM470.016 159.21H514.016C524.55 159.21 529.816 164.477 529.816 175.01V256.21H498.816V177.21C498.816 174.677 498.416 173.01 497.616 172.21C496.816 171.41 495.15 171.01 492.616 171.01H465.816C461.15 171.01 458.816 173.143 458.816 177.41V183.41H458.616V256.21H427.616V159.21H458.616V165.81C460.216 161.41 464.016 159.21 470.016 159.21ZM628.29 238.21V177.21C628.29 174.677 627.89 173.01 627.09 172.21C626.29 171.41 624.623 171.01 622.09 171.01H593.49C590.823 171.01 589.09 171.41 588.29 172.21C587.623 173.01 587.29 174.677 587.29 177.21V238.21C587.29 240.877 587.623 242.61 588.29 243.41C589.09 244.077 590.823 244.41 593.49 244.41H622.09C624.623 244.41 626.29 244.077 627.09 243.41C627.89 242.61 628.29 240.877 628.29 238.21ZM572.29 159.21H643.29C653.823 159.21 659.09 164.477 659.09 175.01V240.41C659.09 250.943 653.823 256.21 643.29 256.21H572.29C561.757 256.21 556.49 250.943 556.49 240.41V175.01C556.49 164.477 561.757 159.21 572.29 159.21ZM719.582 256.21H688.582V159.21H719.582V256.21ZM687.982 143.01V122.21H720.182V143.01H687.982ZM813.673 238.41V220.01C813.673 217.477 813.273 215.81 812.473 215.01C811.806 214.21 810.139 213.81 807.473 213.81H763.273C752.739 213.81 747.473 208.543 747.473 198.01V175.01C747.473 164.477 752.739 159.21 763.273 159.21H827.473C838.006 159.21 843.273 164.477 843.273 175.01V188.21H813.273V177.01C813.273 174.343 812.873 172.677 812.073 172.01C811.406 171.21 809.739 170.81 807.073 170.81H784.473C781.939 170.81 780.273 171.21 779.473 172.01C778.673 172.677 778.273 174.343 778.273 177.01V195.81C778.273 198.477 778.673 200.21 779.473 201.01C780.273 201.677 781.939 202.01 784.473 202.01H828.673C839.206 202.01 844.473 207.277 844.473 217.81V240.41C844.473 250.943 839.206 256.21 828.673 256.21H763.873C753.339 256.21 748.073 250.943 748.073 240.41V227.21H778.273V238.41C778.273 240.943 778.673 242.61 779.473 243.41C780.273 244.21 781.939 244.61 784.473 244.61H807.473C810.139 244.61 811.806 244.21 812.473 243.41C813.273 242.61 813.673 240.943 813.673 238.41ZM957.473 256.21H926.473V159.21H957.473V256.21ZM925.873 143.01V122.21H958.073V143.01H925.873ZM1051.56 238.41V220.01C1051.56 217.477 1051.16 215.81 1050.36 215.01C1049.7 214.21 1048.03 213.81 1045.36 213.81H1001.16C990.63 213.81 985.363 208.543 985.363 198.01V175.01C985.363 164.477 990.63 159.21 1001.16 159.21H1065.36C1075.9 159.21 1081.16 164.477 1081.16 175.01V188.21H1051.16V177.01C1051.16 174.343 1050.76 172.677 1049.96 172.01C1049.3 171.21 1047.63 170.81 1044.96 170.81H1022.36C1019.83 170.81 1018.16 171.21 1017.36 172.01C1016.56 172.677 1016.16 174.343 1016.16 177.01V195.81C1016.16 198.477 1016.56 200.21 1017.36 201.01C1018.16 201.677 1019.83 202.01 1022.36 202.01H1066.56C1077.1 202.01 1082.36 207.277 1082.36 217.81V240.41C1082.36 250.943 1077.1 256.21 1066.56 256.21H1001.76C991.23 256.21 985.963 250.943 985.963 240.41V227.21H1016.16V238.41C1016.16 240.943 1016.56 242.61 1017.36 243.41C1018.16 244.21 1019.83 244.61 1022.36 244.61H1045.36C1048.03 244.61 1049.7 244.21 1050.36 243.41C1051.16 242.61 1051.56 240.943 1051.56 238.41ZM1196.56 219.81H1244.16L1220.36 151.41L1196.56 219.81ZM1256.76 256.21L1248.16 231.61H1192.36L1183.76 256.21H1152.36L1199.96 131.81H1240.76L1288.56 256.21H1256.76ZM1358.3 159.01H1373.5V172.21H1352.5C1343.04 172.21 1338.3 177.277 1338.3 187.41V256.21H1307.3V159.21H1338.3V171.01C1340.97 163.01 1347.64 159.01 1358.3 159.01ZM1422.12 256.21H1391.12V159.21H1422.12V256.21ZM1394.72 149.81L1422.32 120.21H1454.92L1421.12 149.81H1394.72ZM1516.41 238.41V220.01C1516.41 217.477 1516.01 215.81 1515.21 215.01C1514.54 214.21 1512.87 213.81 1510.21 213.81H1466.01C1455.47 213.81 1450.21 208.543 1450.21 198.01V175.01C1450.21 164.477 1455.47 159.21 1466.01 159.21H1530.21C1540.74 159.21 1546.01 164.477 1546.01 175.01V188.21H1516.01V177.01C1516.01 174.343 1515.61 172.677 1514.81 172.01C1514.14 171.21 1512.47 170.81 1509.81 170.81H1487.21C1484.67 170.81 1483.01 171.21 1482.21 172.01C1481.41 172.677 1481.01 174.343 1481.01 177.01V195.81C1481.01 198.477 1481.41 200.21 1482.21 201.01C1483.01 201.677 1484.67 202.01 1487.21 202.01H1531.41C1541.94 202.01 1547.21 207.277 1547.21 217.81V240.41C1547.21 250.943 1541.94 256.21 1531.41 256.21H1466.61C1456.07 256.21 1450.81 250.943 1450.81 240.41V227.21H1481.01V238.41C1481.01 240.943 1481.41 242.61 1482.21 243.41C1483.01 244.21 1484.67 244.61 1487.21 244.61H1510.21C1512.87 244.61 1514.54 244.21 1515.21 243.41C1516.01 242.61 1516.41 240.943 1516.41 238.41Z" fill="#111A75" fill-opacity="0.9"/>
<path d="M1521.35 49.5907C1454.76 56.2306 1433.66 99.2938 1413.68 135.096L1426.6 141.562L1435.67 125.657C1438.95 127.317 1442.42 128.703 1445 129.019C1524 138.697 1562.13 17.5952 1562.13 17.5952C1553 31.2732 1502.48 26.9346 1465.6 29.8146C1428.72 32.6947 1410.21 61.8704 1408.26 76.4281C1406.31 90.9859 1417.16 105.263 1417.16 105.263C1449.53 40.7931 1521.35 49.5907 1521.35 49.5907Z" fill="#111A75" fill-opacity="0.9"/>
</svg>
