<svg width="907" height="295" viewBox="0 0 907 295" fill="none" xmlns="http://www.w3.org/2000/svg">
<path d="M155.188 110.8H178.988L167.088 76.6L155.188 110.8ZM185.288 129L180.988 116.7H153.088L148.788 129H133.088L156.888 66.8H177.288L201.188 129H185.288ZM231.758 80.5H253.758C259.025 80.5 261.658 83.1333 261.658 88.4V129H246.158V89.5C246.158 88.2333 245.958 87.4 245.558 87C245.158 86.6 244.325 86.4 243.058 86.4H229.658C227.325 86.4 226.158 87.4667 226.158 89.6V92.6H226.058V129H210.558V80.5H226.058V83.8C226.858 81.6 228.758 80.5 231.758 80.5ZM310.895 120V89.5C310.895 88.2333 310.695 87.4 310.295 87C309.895 86.6 309.062 86.4 307.795 86.4H293.495C292.162 86.4 291.295 86.6 290.895 87C290.562 87.4 290.395 88.2333 290.395 89.5V120C290.395 121.333 290.562 122.2 290.895 122.6C291.295 122.933 292.162 123.1 293.495 123.1H307.795C309.062 123.1 309.895 122.933 310.295 122.6C310.695 122.2 310.895 121.333 310.895 120ZM282.895 80.5H318.395C323.662 80.5 326.295 83.1333 326.295 88.4V121.1C326.295 126.367 323.662 129 318.395 129H282.895C277.628 129 274.995 126.367 274.995 121.1V88.4C274.995 83.1333 277.628 80.5 282.895 80.5ZM356.541 129H341.041V80.5H356.541V129ZM340.741 72.4V62H356.841V72.4H340.741ZM403.586 120.1V110.9C403.586 109.633 403.386 108.8 402.986 108.4C402.653 108 401.82 107.8 400.486 107.8H378.386C373.12 107.8 370.486 105.167 370.486 99.9V88.4C370.486 83.1333 373.12 80.5 378.386 80.5H410.486C415.753 80.5 418.386 83.1333 418.386 88.4V95H403.386V89.4C403.386 88.0667 403.186 87.2333 402.786 86.9C402.453 86.5 401.62 86.3 400.286 86.3H388.986C387.72 86.3 386.886 86.5 386.486 86.9C386.086 87.2333 385.886 88.0667 385.886 89.4V98.8C385.886 100.133 386.086 101 386.486 101.4C386.886 101.733 387.72 101.9 388.986 101.9H411.086C416.353 101.9 418.986 104.533 418.986 109.8V121.1C418.986 126.367 416.353 129 411.086 129H378.686C373.42 129 370.786 126.367 370.786 121.1V114.5H385.886V120.1C385.886 121.367 386.086 122.2 386.486 122.6C386.886 123 387.72 123.2 388.986 123.2H400.486C401.82 123.2 402.653 123 402.986 122.6C403.386 122.2 403.586 121.367 403.586 120.1ZM475.486 129H459.986V80.5H475.486V129ZM459.686 72.4V62H475.786V72.4H459.686ZM522.532 120.1V110.9C522.532 109.633 522.332 108.8 521.932 108.4C521.598 108 520.765 107.8 519.432 107.8H497.332C492.065 107.8 489.432 105.167 489.432 99.9V88.4C489.432 83.1333 492.065 80.5 497.332 80.5H529.432C534.698 80.5 537.332 83.1333 537.332 88.4V95H522.332V89.4C522.332 88.0667 522.132 87.2333 521.732 86.9C521.398 86.5 520.565 86.3 519.232 86.3H507.932C506.665 86.3 505.832 86.5 505.432 86.9C505.032 87.2333 504.832 88.0667 504.832 89.4V98.8C504.832 100.133 505.032 101 505.432 101.4C505.832 101.733 506.665 101.9 507.932 101.9H530.032C535.298 101.9 537.932 104.533 537.932 109.8V121.1C537.932 126.367 535.298 129 530.032 129H497.632C492.365 129 489.732 126.367 489.732 121.1V114.5H504.832V120.1C504.832 121.367 505.032 122.2 505.432 122.6C505.832 123 506.665 123.2 507.932 123.2H519.432C520.765 123.2 521.598 123 521.932 122.6C522.332 122.2 522.532 121.367 522.532 120.1ZM595.032 110.8H618.832L606.932 76.6L595.032 110.8ZM625.132 129L620.832 116.7H592.932L588.632 129H572.932L596.732 66.8H617.132L641.032 129H625.132ZM675.902 80.4H683.502V87H673.002C668.269 87 665.902 89.5333 665.902 94.6V129H650.402V80.5H665.902V86.4C667.235 82.4 670.569 80.4 675.902 80.4ZM707.811 129H692.311V80.5H707.811V129ZM694.111 75.8L707.911 61H724.211L707.311 75.8H694.111ZM754.954 120.1V110.9C754.954 109.633 754.754 108.8 754.354 108.4C754.02 108 753.187 107.8 751.854 107.8H729.754C724.487 107.8 721.854 105.167 721.854 99.9V88.4C721.854 83.1333 724.487 80.5 729.754 80.5H761.854C767.12 80.5 769.754 83.1333 769.754 88.4V95H754.754V89.4C754.754 88.0667 754.554 87.2333 754.154 86.9C753.82 86.5 752.987 86.3 751.654 86.3H740.354C739.087 86.3 738.254 86.5 737.854 86.9C737.454 87.2333 737.254 88.0667 737.254 89.4V98.8C737.254 100.133 737.454 101 737.854 101.4C738.254 101.733 739.087 101.9 740.354 101.9H762.454C767.72 101.9 770.354 104.533 770.354 109.8V121.1C770.354 126.367 767.72 129 762.454 129H730.054C724.787 129 722.154 126.367 722.154 121.1V114.5H737.254V120.1C737.254 121.367 737.454 122.2 737.854 122.6C738.254 123 739.087 123.2 740.354 123.2H751.854C753.187 123.2 754.02 123 754.354 122.6C754.754 122.2 754.954 121.367 754.954 120.1Z" fill="white"/>
<path d="M755.26 25.7558C722.205 29.2043 711.729 51.5698 701.808 70.1641L708.227 73.5228L712.728 65.2619C714.357 66.1239 716.076 66.8438 717.36 67.0083C756.576 72.0344 775.508 9.13834 775.508 9.13834C770.974 16.2422 745.897 13.9889 727.587 15.4847C709.277 16.9805 700.087 32.1334 699.118 39.6942C698.149 47.255 703.54 54.6703 703.54 54.6703C719.609 21.1866 755.26 25.7558 755.26 25.7558Z" fill="white"/>
</svg>
