<svg width="84" height="65" viewBox="0 0 84 65" fill="none" xmlns="http://www.w3.org/2000/svg">
<g filter="url(#filter0_d_287_1719)">
<g clip-path="url(#clip0_287_1719)">
<path d="M34.4 0H80V57H34.4V0Z" fill="#FF0000"/>
<path d="M4 0H34.4V57H4V0Z" fill="#006600"/>
<path fill-rule="evenodd" clip-rule="evenodd" d="M44.3158 36.3612C40.4801 36.2425 22.9408 25.2937 22.822 23.5362L23.7839 21.9331C25.5295 24.4625 43.4608 35.1144 45.2301 34.7344L44.3158 36.3612Z" fill="#FFFF00" stroke="black" stroke-width="0.075" stroke-linecap="round" stroke-linejoin="round"/>
<path fill-rule="evenodd" clip-rule="evenodd" d="M23.5819 21.7075C23.2375 22.6338 28.1656 25.6738 34.0794 29.2838C40.005 32.8819 45.1113 35.1025 45.4794 34.7938L45.6575 34.4613C45.5863 34.58 45.42 34.6156 45.1469 34.5325C43.5438 34.0694 39.3756 32.1575 34.21 29.0225C29.0325 25.8875 24.5438 23.0019 23.8431 21.7788C23.7885 21.6641 23.764 21.5374 23.7719 21.4106H23.7481L23.6056 21.6719L23.5819 21.7075ZM44.3988 36.4088C44.3394 36.5275 44.2088 36.5275 43.9831 36.5038C42.5581 36.3494 38.2119 34.2356 33.07 31.16C27.085 27.5738 22.145 24.32 22.6913 23.465L22.8338 23.2038L22.8575 23.2156C22.3825 24.6644 32.6069 30.5069 33.2125 30.8869C39.1263 34.5444 44.1138 36.6938 44.5531 36.1356L44.3988 36.4088Z" fill="#FFFF00" stroke="black" stroke-width="0.075" stroke-linecap="round" stroke-linejoin="round"/>
<path fill-rule="evenodd" clip-rule="evenodd" d="M34.4239 24.6051C38.2476 24.5695 42.9739 24.0826 45.7051 22.9901L45.1114 22.0401C43.5082 22.9307 38.7582 23.5245 34.3882 23.6076C29.2345 23.5601 25.5889 23.0732 23.7601 21.8501L23.2139 22.8713C26.5626 24.2963 30.0064 24.5932 34.4239 24.6051Z" fill="#FFFF00" stroke="black" stroke-width="0.075" stroke-linecap="round" stroke-linejoin="round"/>
<path fill-rule="evenodd" clip-rule="evenodd" d="M45.8596 23.0138C45.7646 23.1682 43.9833 23.7738 41.3708 24.225C39.0678 24.574 36.7413 24.7447 34.4121 24.7357C32.1804 24.744 29.9507 24.6012 27.7383 24.3082C24.9952 23.8807 23.5821 23.2869 23.0477 23.0732L23.1783 22.8119C24.6864 23.4057 26.1114 23.7619 27.7739 24.0232C29.9702 24.3197 32.184 24.4665 34.4002 24.4625C36.7174 24.465 39.0315 24.2943 41.3233 23.9519C43.9952 23.5125 45.4558 22.9544 45.6696 22.705L45.8596 23.0257V23.0138ZM45.3371 22.0519C45.0521 22.2894 43.6033 22.8 41.0621 23.2038C38.8676 23.5213 36.6531 23.68 34.4358 23.6788C31.8233 23.6788 29.6739 23.4888 28.0471 23.2513C25.4583 22.9188 24.0808 22.3013 23.5821 22.135L23.7364 21.8738C24.1283 22.0757 25.4464 22.61 28.0708 22.9782C30.1805 23.2607 32.3073 23.3957 34.4358 23.3819C36.6373 23.3826 38.836 23.2238 41.0146 22.9069C43.5677 22.5507 44.9452 21.9094 45.1589 21.7432L45.3371 22.0519ZM21.8483 29.2125C24.1996 30.4832 29.4364 31.1125 34.3883 31.16C38.9008 31.1719 44.767 30.4713 46.9639 29.3075L46.9045 28.0369C46.2158 29.1057 39.9221 30.1388 34.3408 30.1032C28.7596 30.0557 23.5702 29.2007 21.8364 28.0844V29.2125" fill="#FFFF00"/>
<path d="M21.8483 29.2125C24.1996 30.4832 29.4364 31.1125 34.3883 31.16C38.9008 31.1719 44.767 30.4713 46.9639 29.3075L46.9045 28.0369C46.2158 29.1057 39.9221 30.1388 34.3408 30.1032C28.7596 30.0557 23.5702 29.2007 21.8364 28.0844V29.2125M45.8596 23.0138C45.7646 23.1682 43.9833 23.7738 41.3708 24.225C39.0678 24.574 36.7413 24.7447 34.4121 24.7357C32.1804 24.744 29.9507 24.6012 27.7383 24.3082C24.9952 23.8807 23.5821 23.2869 23.0477 23.0732L23.1783 22.8119C24.6864 23.4057 26.1114 23.7619 27.7739 24.0232C29.9702 24.3197 32.184 24.4665 34.4002 24.4625C36.7174 24.465 39.0315 24.2943 41.3233 23.9519C43.9952 23.5125 45.4558 22.9544 45.6696 22.705L45.8596 23.0257V23.0138ZM45.3371 22.0519C45.0521 22.2894 43.6033 22.8 41.0621 23.2038C38.8676 23.5213 36.6531 23.68 34.4358 23.6788C31.8233 23.6788 29.6739 23.4888 28.0471 23.2513C25.4583 22.9188 24.0808 22.3013 23.5821 22.135L23.7364 21.8738C24.1283 22.0757 25.4464 22.61 28.0708 22.9782C30.1805 23.2607 32.3073 23.3957 34.4358 23.3819C36.6373 23.3826 38.836 23.2238 41.0146 22.9069C43.5677 22.5507 44.9452 21.9094 45.1589 21.7432L45.3371 22.0519Z" stroke="black" stroke-width="0.075" stroke-linecap="round" stroke-linejoin="round"/>
<path fill-rule="evenodd" clip-rule="evenodd" d="M47.0826 29.0342V29.3311C46.7501 29.7348 44.6838 30.3286 42.0951 30.7561C39.5232 31.1258 36.9271 31.3004 34.3288 31.2786C31.8652 31.2996 29.4036 31.1289 26.9663 30.768C25.1478 30.5578 23.3707 30.0775 21.6938 29.343V28.9986C22.8457 29.7586 25.957 30.3286 27.002 30.4948C28.8782 30.7798 31.2888 30.9936 34.3288 30.9936C37.5232 30.9936 40.0763 30.768 42.0476 30.4711C43.912 30.198 46.5601 29.4973 47.0826 29.0342ZM47.0826 27.9655V28.2623C46.7501 28.6542 44.6838 29.248 42.0951 29.6755C39.5235 30.0491 36.9274 30.2278 34.3288 30.2098C31.8654 30.2243 29.4043 30.0537 26.9663 29.6992C25.1478 29.4891 23.3707 29.0088 21.6938 28.2742V27.918C22.8457 28.6898 25.9688 29.248 27.002 29.4142C29.4278 29.7696 31.8772 29.9403 34.3288 29.9248C37.5232 29.9248 40.0882 29.6873 42.0476 29.3905C43.912 29.1292 46.5601 28.4286 47.0826 27.9655ZM34.3763 36.1355C28.9613 36.1117 24.3182 34.663 23.3326 34.4255L24.0451 35.5417C27.3759 36.7214 30.8907 37.2965 34.4238 37.2398C38.5445 37.1211 42.1426 36.8005 44.672 35.5655L45.4082 34.4017C43.6863 35.2211 37.8082 36.1355 34.3645 36.1355" fill="#FFFF00"/>
<path d="M34.3763 36.1355C28.9613 36.1117 24.3182 34.663 23.3326 34.4255L24.0451 35.5417C27.3759 36.7214 30.8907 37.2965 34.4238 37.2398C38.5445 37.1211 42.1426 36.8005 44.672 35.5655L45.4082 34.4017C43.6863 35.2211 37.8082 36.1355 34.3645 36.1355M47.0826 29.0342V29.3311C46.7501 29.7348 44.6838 30.3286 42.0951 30.7561C39.5232 31.1258 36.9271 31.3004 34.3288 31.2786C31.8652 31.2996 29.4036 31.1289 26.9663 30.768C25.1478 30.5578 23.3707 30.0775 21.6938 29.343V28.9986C22.8457 29.7586 25.957 30.3286 27.002 30.4948C28.8782 30.7798 31.2888 30.9936 34.3288 30.9936C37.5232 30.9936 40.0763 30.768 42.0476 30.4711C43.912 30.198 46.5601 29.4973 47.0826 29.0342ZM47.0826 27.9655V28.2623C46.7501 28.6542 44.6838 29.248 42.0951 29.6755C39.5235 30.0491 36.9274 30.2278 34.3288 30.2098C31.8654 30.2243 29.4043 30.0537 26.9663 29.6992C25.1478 29.4891 23.3707 29.0088 21.6938 28.2742V27.918C22.8457 28.6898 25.9688 29.248 27.002 29.4142C29.4278 29.7696 31.8772 29.9403 34.3288 29.9248C37.5232 29.9248 40.0882 29.6873 42.0476 29.3905C43.912 29.1292 46.5601 28.4286 47.0826 27.9655Z" stroke="black" stroke-width="0.075" stroke-linecap="round" stroke-linejoin="round"/>
<path fill-rule="evenodd" clip-rule="evenodd" d="M44.957 35.3044C44.8489 35.4646 44.7381 35.623 44.6245 35.7794C43.437 36.2069 41.537 36.6582 40.7533 36.7769C38.6502 37.1688 36.5157 37.3676 34.3764 37.3707C29.5789 37.2994 25.6483 36.3613 23.8076 35.5538L23.6533 35.3044L23.677 35.2569L23.9264 35.3638C27.3061 36.4822 30.8403 37.0632 34.4001 37.0857C36.6326 37.0857 38.8533 36.8363 40.6464 36.5157C43.4014 35.9576 44.5176 35.5419 44.862 35.3519L44.9451 35.3044H44.957ZM45.5864 34.2594C45.5082 34.3985 45.429 34.5371 45.3489 34.6751C44.7076 34.9126 42.9739 35.4113 40.4445 35.7676C38.782 35.9932 37.7489 36.2188 34.4358 36.2782C30.6484 36.2402 26.8843 35.6807 23.2495 34.6157L23.1189 34.3188C26.8118 35.3395 30.6172 35.8979 34.4476 35.9813C37.4758 35.9219 38.7701 35.6963 40.4208 35.4707C43.3658 35.0194 44.8501 34.5207 45.2895 34.3901C45.2898 34.3821 45.2898 34.3742 45.2895 34.3663L45.5983 34.2476L45.5864 34.2594Z" fill="#FFFF00" stroke="black" stroke-width="0.075" stroke-linecap="round" stroke-linejoin="round"/>
<path fill-rule="evenodd" clip-rule="evenodd" d="M45.6577 28.215C45.6696 31.7775 43.8408 34.9837 42.3802 36.385C40.2229 38.489 37.342 39.6873 34.3289 39.7338C30.7308 39.7931 27.3464 37.4538 26.4321 36.4206C24.3865 34.2514 23.2223 31.398 23.1664 28.4169C23.3802 24.5219 24.9121 21.8144 27.1208 19.95C29.2664 18.1837 31.9655 17.2293 34.7446 17.2544C36.3668 17.333 37.9548 17.7497 39.4067 18.4777C40.8586 19.2057 42.1424 20.2289 43.1758 21.4819C44.6602 23.2869 45.3133 25.2463 45.6577 28.215ZM34.3527 16.0313C37.6747 16.0312 40.8621 17.3443 43.22 19.6844C45.5779 22.0245 46.9151 25.2018 46.9402 28.5237C46.9402 30.1721 46.6155 31.8043 45.9847 33.3271C45.3539 34.85 44.4294 36.2337 43.2638 37.3993C42.0983 38.5648 40.7146 39.4894 39.1917 40.1202C37.6689 40.751 36.0367 41.0756 34.3883 41.0756C32.74 41.0756 31.1078 40.751 29.5849 40.1202C28.0621 39.4894 26.6784 38.5648 25.5128 37.3993C24.3473 36.2337 23.4227 34.85 22.7919 33.3271C22.1611 31.8043 21.8364 30.1721 21.8364 28.5237C21.8246 21.6362 27.4533 16.0313 34.3527 16.0313Z" fill="#FFFF00" stroke="black" stroke-width="0.075" stroke-linecap="round" stroke-linejoin="round"/>
<path fill-rule="evenodd" clip-rule="evenodd" d="M34.3882 15.9717C41.2995 15.9717 46.9282 21.6004 46.9282 28.5117C46.9282 35.4229 41.2995 41.0517 34.4001 41.0517C27.5007 41.0517 21.8601 35.4229 21.8601 28.5117C21.8601 21.6004 27.4889 15.9717 34.4001 15.9717H34.3882ZM22.1214 28.4998C22.1214 35.2448 27.667 40.7667 34.3882 40.7667C41.1095 40.7667 46.6551 35.2448 46.6551 28.4998C46.6551 21.7548 41.1095 16.2329 34.3882 16.2329C27.667 16.2329 22.1214 21.7548 22.1214 28.4998Z" fill="#FFFF00" stroke="black" stroke-width="0.075" stroke-linecap="round" stroke-linejoin="round"/>
<path fill-rule="evenodd" clip-rule="evenodd" d="M34.4001 17.0171C37.4427 17.0265 40.3581 18.2393 42.5095 20.3908C44.661 22.5423 45.8738 25.4576 45.8832 28.5002C45.8739 31.5439 44.6614 34.4605 42.5103 36.6139C40.3591 38.7672 37.4438 39.9827 34.4001 39.9952C28.1064 39.9952 22.917 34.8177 22.917 28.5002C22.9295 25.4586 24.1433 22.545 26.2941 20.3942C28.4449 18.2434 31.3585 17.0296 34.4001 17.0171ZM23.1901 28.5002C23.1901 34.6752 28.2489 39.7102 34.4001 39.7102C40.5514 39.7102 45.6101 34.6633 45.6101 28.5002C45.6101 22.3252 40.5514 17.2902 34.4001 17.2902C31.4309 17.3027 28.5868 18.4878 26.4873 20.5874C24.3877 22.6869 23.2026 25.531 23.1901 28.5002Z" fill="#FFFF00" stroke="black" stroke-width="0.075" stroke-linecap="round" stroke-linejoin="round"/>
<path fill-rule="evenodd" clip-rule="evenodd" d="M34.9107 15.9126H33.8301V41.1232H34.8988L34.9107 15.9126Z" fill="#FFFF00" stroke="black" stroke-width="0.075" stroke-linecap="round" stroke-linejoin="round"/>
<path fill-rule="evenodd" clip-rule="evenodd" d="M34.792 15.77H35.0651V41.2656H34.8039V15.77H34.792ZM33.7233 15.77H34.0083V41.2656H33.7351V15.77H33.7233Z" fill="#FFFF00" stroke="black" stroke-width="0.075" stroke-linecap="round" stroke-linejoin="round"/>
<path fill-rule="evenodd" clip-rule="evenodd" d="M46.9402 28.9989V28.0727L46.1802 27.3602L41.8695 26.2202L35.6708 25.5908L28.1895 25.9708L22.8695 27.2296L21.8008 28.0252V28.9633L24.5202 27.7402L30.9802 26.7308H37.1908L41.7508 27.2296L44.9095 27.9896L46.9402 28.9989Z" fill="#FFFF00" stroke="black" stroke-width="0.075" stroke-linecap="round" stroke-linejoin="round"/>
<path fill-rule="evenodd" clip-rule="evenodd" d="M34.4001 26.5763C37.357 26.5763 40.2188 26.8494 42.5107 27.2888C44.862 27.7638 46.5126 28.3575 47.0826 29.0106V29.3431C46.3938 28.5119 44.1732 27.9181 42.4513 27.5619C40.1951 27.1344 37.3451 26.8494 34.3882 26.8494C31.2888 26.8494 28.3913 27.1581 26.1588 27.5856C24.3776 27.9419 21.9907 28.6544 21.6938 29.3431V28.9988C21.8482 28.5238 23.6295 27.8113 26.1232 27.3006C28.3676 26.8613 31.2651 26.5763 34.3882 26.5763H34.4001ZM34.4001 25.4956C37.1195 25.4902 39.8339 25.7286 42.5107 26.2081C44.862 26.6831 46.5126 27.2769 47.0826 27.9419V28.2625C46.3938 27.4431 44.1732 26.8375 42.4513 26.4931C40.1951 26.0538 37.3451 25.7806 34.3882 25.7806C31.6322 25.7719 28.8813 26.0184 26.1707 26.5169C24.4488 26.8375 21.967 27.5738 21.6938 28.2625V27.93C21.8601 27.455 23.6651 26.7069 26.1232 26.2319C28.3795 25.7925 31.2651 25.4956 34.4001 25.4956ZM34.3288 20.0094C38.9957 19.9856 43.0688 20.6625 44.9332 21.6125L45.6101 22.8C43.9951 21.9213 39.6013 21.0188 34.3407 21.1375C30.0538 21.1731 25.4701 21.6125 23.1782 22.8475L23.9857 21.4938C25.8738 20.5081 30.3151 20.0094 34.3288 20.0094Z" fill="#FFFF00" stroke="black" stroke-width="0.075" stroke-linecap="round" stroke-linejoin="round"/>
<path fill-rule="evenodd" clip-rule="evenodd" d="M34.4001 20.983C36.8368 20.9419 39.2724 21.1128 41.6795 21.4937C43.5795 21.8499 45.3963 22.3724 45.6576 22.6574L45.8595 23.0137C45.2301 22.6099 43.6507 22.1468 41.632 21.7668C39.6132 21.3868 37.0363 21.2562 34.3882 21.268C31.3838 21.2562 29.0445 21.4105 27.0495 21.7668C25.6742 21.9595 24.339 22.3725 23.0951 22.9899L23.297 22.6218C24.0095 22.2655 25.1138 21.8262 26.9901 21.4818C29.0682 21.1018 31.4313 20.9949 34.4001 20.983ZM34.4001 19.9143C36.9413 19.8905 39.4588 20.033 41.4182 20.3893C42.6877 20.5778 43.9162 20.9792 45.052 21.5768L45.3488 22.0518C44.8501 21.4937 42.9738 20.9593 41.2995 20.6743C39.352 20.3299 36.9413 20.1993 34.4001 20.1755C32.0345 20.1545 29.6712 20.3292 27.3345 20.698C26.1126 20.8683 24.9259 21.2331 23.8195 21.7787L24.0807 21.3868C24.7695 21.0305 25.8857 20.698 27.287 20.4249C29.6391 20.0513 32.0186 19.8765 34.4001 19.9024V19.9143ZM40.6226 33.7249C38.5643 33.3686 36.4767 33.2095 34.3882 33.2499C26.6101 33.3449 24.1045 34.853 23.7957 35.3043L23.202 34.3543C25.197 32.9293 29.4245 32.1218 34.4357 32.193C37.0363 32.2405 39.2807 32.4187 41.157 32.7868L40.6226 33.7368" fill="#FFFF00"/>
<path d="M40.6226 33.7249C38.5643 33.3686 36.4767 33.2095 34.3882 33.2499C26.6101 33.3449 24.1045 34.853 23.7957 35.3043L23.202 34.3543C25.197 32.9293 29.4245 32.1218 34.4357 32.193C37.0363 32.2405 39.2807 32.4187 41.157 32.7868L40.6226 33.7368M34.4001 20.983C36.8368 20.9419 39.2724 21.1128 41.6795 21.4937C43.5795 21.8499 45.3963 22.3724 45.6576 22.6574L45.8595 23.0137C45.2301 22.6099 43.6507 22.1468 41.632 21.7668C39.6132 21.3868 37.0363 21.2562 34.3882 21.268C31.3838 21.2562 29.0445 21.4105 27.0495 21.7668C25.6742 21.9595 24.339 22.3725 23.0951 22.9899L23.297 22.6218C24.0095 22.2655 25.1138 21.8262 26.9901 21.4818C29.0682 21.1018 31.4313 20.9949 34.4001 20.983ZM34.4001 19.9143C36.9413 19.8905 39.4588 20.033 41.4182 20.3893C42.6877 20.5778 43.9162 20.9792 45.052 21.5768L45.3488 22.0518C44.8501 21.4937 42.9738 20.9593 41.2995 20.6743C39.352 20.3299 36.9413 20.1993 34.4001 20.1755C32.0345 20.1545 29.6712 20.3292 27.3345 20.698C26.1126 20.8683 24.9259 21.2331 23.8195 21.7787L24.0807 21.3868C24.7695 21.0305 25.8857 20.698 27.287 20.4249C29.6391 20.0513 32.0186 19.8765 34.4001 19.9024V19.9143Z" stroke="black" stroke-width="0.075" stroke-linecap="round" stroke-linejoin="round"/>
<path fill-rule="evenodd" clip-rule="evenodd" d="M34.3526 33.1194C36.5138 33.155 38.6276 33.2381 40.6819 33.6181L40.5394 33.8794C38.6394 33.5231 36.5969 33.4044 34.3644 33.4044C31.4788 33.3806 28.5813 33.6537 26.0519 34.3781C25.2563 34.6037 23.9382 35.1144 23.7957 35.5419L23.6532 35.3044C23.7007 35.0431 24.4844 34.5206 25.9807 34.1169C28.8782 33.2856 31.5857 33.1312 34.3526 33.1194ZM34.4476 32.0269C36.7287 32.0245 39.0057 32.2232 41.2519 32.6206L41.0976 32.8937C38.9041 32.4914 36.6776 32.2966 34.4476 32.3119C31.5738 32.3119 28.5219 32.5256 25.7432 33.3331C24.8526 33.5944 23.2969 34.1644 23.2494 34.6037L23.1069 34.3425C23.1307 33.9388 24.4726 33.4044 25.6838 33.06C28.4744 32.2406 31.5382 32.0388 34.4476 32.0269Z" fill="#FFFF00" stroke="black" stroke-width="0.075" stroke-linecap="round" stroke-linejoin="round"/>
<path fill-rule="evenodd" clip-rule="evenodd" d="M45.4913 34.4969L44.5651 35.9575L41.8694 33.5706L34.9107 28.88L27.0494 24.5694L22.9763 23.18L23.8432 21.565L24.1401 21.4106L26.6694 22.04L35.0294 26.3506L39.8507 29.3906L43.9001 32.3L45.5507 34.2L45.4913 34.4969Z" fill="#FFFF00" stroke="black" stroke-width="0.075" stroke-linecap="round" stroke-linejoin="round"/>
<path fill-rule="evenodd" clip-rule="evenodd" d="M22.8338 23.2156C23.5463 22.7406 28.7951 25.0681 34.3051 28.3931C39.7794 31.7181 45.0282 35.4706 44.5532 36.1712L44.3988 36.4206L44.3276 36.48C44.3394 36.4681 44.4226 36.3612 44.3276 36.1119C44.0901 35.34 40.3613 32.3712 34.1982 28.6425C28.1776 25.0681 23.1663 22.9069 22.6794 23.5244L22.8338 23.2156ZM45.6813 34.485C46.1326 33.5825 41.2638 29.9131 35.2194 26.3387C29.0444 22.8356 24.5794 20.7694 23.7601 21.3869L23.5938 21.7312C23.5938 21.7431 23.5938 21.7075 23.6413 21.6719C23.7838 21.5531 24.0332 21.5531 24.1401 21.5531C25.5413 21.5769 29.5432 23.4175 35.1601 26.6356C37.6301 28.0606 45.5626 33.1669 45.5269 34.5919C45.5269 34.7106 45.5388 34.7344 45.4913 34.8056L45.6932 34.4969L45.6813 34.485Z" fill="#FFFF00" stroke="black" stroke-width="0.075" stroke-linecap="round" stroke-linejoin="round"/>
<path d="M26.8761 29.8972C26.878 30.8805 27.0749 31.8536 27.4554 32.7603C27.8358 33.6669 28.3924 34.4891 29.0928 35.1793C29.7846 35.8817 30.6086 36.4404 31.5173 36.823C32.426 37.2056 33.4015 37.4046 34.3875 37.4086C36.3829 37.4084 38.2966 36.6156 39.7075 35.2046C40.4054 34.5106 40.9594 33.6857 41.3376 32.7771C41.7158 31.8685 41.9108 30.8941 41.9115 29.9099V19.8779L26.8761 19.8525V29.8972Z" fill="white" stroke="black" stroke-width="0.0933336"/>
<path d="M27.1548 29.9097C27.1575 30.8529 27.3469 31.7862 27.7121 32.6558C28.0774 33.5254 28.6112 34.3141 29.2828 34.9764C30.6314 36.332 32.4626 37.0973 34.3748 37.1044C36.2836 37.1054 38.1149 36.3492 39.4668 35.0017C40.1361 34.3384 40.6676 33.5492 41.0307 32.6797C41.3937 31.8101 41.5811 30.8773 41.5822 29.935V20.1816H27.1801V29.9097M38.7068 23.1076V29.3017L38.6942 29.9477C38.6984 30.5135 38.5884 31.0745 38.3708 31.5968C38.1531 32.1192 37.8323 32.5923 37.4275 32.9877C36.622 33.796 35.5286 34.2516 34.3875 34.2544C33.1968 34.2544 32.1455 33.7477 31.3601 32.9623C30.5518 32.1568 30.0963 31.0635 30.0935 29.9223V23.0823L38.7068 23.1076Z" fill="#FF0000"/>
<path d="M27.1548 29.9097C27.1575 30.8529 27.3469 31.7862 27.7121 32.6558C28.0774 33.5254 28.6112 34.3141 29.2828 34.9764C30.6314 36.332 32.4626 37.0973 34.3748 37.1044C36.2836 37.1054 38.1149 36.3492 39.4668 35.0017C40.1361 34.3384 40.6676 33.5492 41.0307 32.6797C41.3937 31.8101 41.5811 30.8773 41.5822 29.935V20.1816H27.1801V29.9097M38.7068 23.1076V29.3017L38.6942 29.9477C38.6984 30.5135 38.5884 31.0745 38.3708 31.5968C38.1531 32.1192 37.8323 32.5923 37.4275 32.9877C36.622 33.796 35.5286 34.2516 34.3875 34.2544C33.1968 34.2544 32.1455 33.7477 31.3601 32.9623C30.5518 32.1568 30.0963 31.0635 30.0935 29.9223V23.0823L38.7068 23.1076Z" stroke="black" stroke-width="0.0666669"/>
<path d="M28.092 22.728C28.1047 22.0314 28.5987 21.8667 28.5987 21.8667C28.6114 21.8667 29.1434 22.044 29.1434 22.7407H28.092" fill="#FFFF00"/>
<path d="M27.6614 21.8794L27.5727 22.6774H28.1047C28.1047 22.0187 28.6114 21.9174 28.6114 21.9174C28.6241 21.9174 29.1181 22.0567 29.1307 22.6774H29.6627L29.5614 21.8667H27.6614V21.8794ZM27.5347 22.69H29.6881C29.7261 22.69 29.7641 22.728 29.7641 22.7787C29.7641 22.842 29.7261 22.88 29.6881 22.88H27.5347C27.4967 22.88 27.4587 22.842 27.4587 22.7787C27.4587 22.728 27.4967 22.69 27.5474 22.69H27.5347Z" fill="#FFFF00" stroke="black" stroke-width="0.0666669"/>
<path d="M28.3201 22.6774C28.3201 22.2594 28.6114 22.1454 28.6114 22.1454C28.6114 22.1454 28.9027 22.2721 28.9027 22.6774H28.3201ZM27.5854 21.5374H29.6501C29.6881 21.5374 29.7261 21.5881 29.7261 21.6387C29.7261 21.6767 29.6881 21.7147 29.6501 21.7147H27.5854C27.5474 21.7147 27.5094 21.6767 27.5094 21.6261C27.5094 21.5881 27.5474 21.5501 27.5854 21.5501V21.5374ZM27.6361 21.7274H29.5867C29.6247 21.7274 29.6627 21.7654 29.6627 21.8161C29.6627 21.8667 29.6247 21.9047 29.5867 21.9047H27.6234C27.5727 21.9047 27.5474 21.8667 27.5474 21.8161C27.5474 21.7654 27.5727 21.7274 27.6234 21.7274H27.6361ZM28.2694 20.3847H28.4214V20.4861H28.5354V20.3847H28.7001V20.4987H28.8141V20.3721H28.9661V20.6254C28.9661 20.6761 28.9407 20.7014 28.9027 20.7014H28.3454C28.3074 20.7014 28.2694 20.6761 28.2694 20.6381V20.3847ZM28.8521 20.7267L28.8901 21.5374H28.3454L28.3834 20.7141H28.8521" fill="#FFFF00"/>
<path d="M28.8521 20.7267L28.8901 21.5374H28.3454L28.3834 20.7141H28.8521M28.3201 22.6774C28.3201 22.2594 28.6114 22.1454 28.6114 22.1454C28.6114 22.1454 28.9027 22.2721 28.9027 22.6774H28.3201ZM27.5854 21.5374H29.6501C29.6881 21.5374 29.7261 21.5881 29.7261 21.6387C29.7261 21.6767 29.6881 21.7147 29.6501 21.7147H27.5854C27.5474 21.7147 27.5094 21.6767 27.5094 21.6261C27.5094 21.5881 27.5474 21.5501 27.5854 21.5501V21.5374ZM27.6361 21.7274H29.5867C29.6247 21.7274 29.6627 21.7654 29.6627 21.8161C29.6627 21.8667 29.6247 21.9047 29.5867 21.9047H27.6234C27.5727 21.9047 27.5474 21.8667 27.5474 21.8161C27.5474 21.7654 27.5727 21.7274 27.6234 21.7274H27.6361ZM28.2694 20.3847H28.4214V20.4861H28.5354V20.3847H28.7001V20.4987H28.8141V20.3721H28.9661V20.6254C28.9661 20.6761 28.9407 20.7014 28.9027 20.7014H28.3454C28.3074 20.7014 28.2694 20.6761 28.2694 20.6381V20.3847Z" stroke="black" stroke-width="0.0666669"/>
<path d="M28.1934 21.1069V21.5376H27.6868V21.1069H28.1934Z" fill="#FFFF00" stroke="black" stroke-width="0.0666669"/>
<path d="M29.5361 21.1069V21.5376H29.0294V21.1069H29.5361Z" fill="#FFFF00" stroke="black" stroke-width="0.0666669"/>
<path d="M27.598 20.7773H27.75V20.904H27.864V20.7773H28.016V20.904H28.13V20.7773H28.282V21.0307C28.282 21.0813 28.2567 21.1067 28.2187 21.1067H27.674C27.6539 21.1067 27.6345 21.0987 27.6203 21.0844C27.606 21.0702 27.598 21.0508 27.598 21.0307V20.7773Z" fill="#FFFF00" stroke="black" stroke-width="0.0666669"/>
<path d="M28.9408 20.7773H29.0928V20.904H29.2068V20.7773H29.3588V20.904H29.4728V20.7773H29.6248V21.0307C29.6248 21.0813 29.5995 21.1067 29.5615 21.1067H29.0168C28.9966 21.1067 28.9773 21.0987 28.9631 21.0844C28.9488 21.0702 28.9408 21.0508 28.9408 21.0307V20.7773Z" fill="#FFFF00" stroke="black" stroke-width="0.0666669"/>
<path d="M28.5608 20.9799C28.5608 20.9039 28.6748 20.9039 28.6748 20.9799V21.1825H28.5608V20.9799Z" fill="black"/>
<path d="M27.8894 21.2587C27.8894 21.1827 27.9907 21.1827 27.9907 21.2587V21.4107H27.8894V21.2587Z" fill="black"/>
<path d="M29.2321 21.2587C29.2321 21.1827 29.3334 21.1827 29.3334 21.2587V21.4107H29.2321V21.2587Z" fill="black"/>
<path d="M28.092 28.5928C28.1047 27.8961 28.5987 27.7314 28.5987 27.7314C28.6114 27.7314 29.1434 27.9088 29.1434 28.6054H28.092" fill="#FFFF00"/>
<path d="M27.6614 27.7441L27.5727 28.5421H28.1047C28.1047 27.8834 28.6114 27.7821 28.6114 27.7821C28.6241 27.7821 29.1181 27.9214 29.1307 28.5421H29.6627L29.5614 27.7314H27.6614V27.7441ZM27.5347 28.5548H29.6881C29.7261 28.5548 29.7641 28.5928 29.7641 28.6434C29.7641 28.7068 29.7261 28.7448 29.6881 28.7448H27.5347C27.4967 28.7448 27.4587 28.7068 27.4587 28.6434C27.4587 28.5928 27.4967 28.5548 27.5474 28.5548H27.5347Z" fill="#FFFF00" stroke="black" stroke-width="0.0666669"/>
<path d="M28.3201 28.5422C28.3201 28.1242 28.6114 28.0102 28.6114 28.0102C28.6114 28.0102 28.9027 28.1368 28.9027 28.5422H28.3201ZM27.5854 27.4022H29.6501C29.6881 27.4022 29.7261 27.4528 29.7261 27.5035C29.7261 27.5415 29.6881 27.5795 29.6501 27.5795H27.5854C27.5474 27.5795 27.5094 27.5415 27.5094 27.4908C27.5094 27.4528 27.5474 27.4148 27.5854 27.4148V27.4022ZM27.6361 27.5922H29.5867C29.6247 27.5922 29.6627 27.6302 29.6627 27.6808C29.6627 27.7315 29.6247 27.7695 29.5867 27.7695H27.6234C27.5727 27.7695 27.5474 27.7315 27.5474 27.6808C27.5474 27.6302 27.5727 27.5922 27.6234 27.5922H27.6361ZM28.2694 26.2495H28.4214V26.3508H28.5354V26.2495H28.7001V26.3635H28.8141V26.2368H28.9661V26.4902C28.9661 26.5408 28.9407 26.5661 28.9027 26.5661H28.3454C28.3074 26.5661 28.2694 26.5408 28.2694 26.5028V26.2495ZM28.8521 26.5915L28.8901 27.4022H28.3454L28.3834 26.5788H28.8521" fill="#FFFF00"/>
<path d="M28.8521 26.5915L28.8901 27.4022H28.3454L28.3834 26.5788H28.8521M28.3201 28.5422C28.3201 28.1242 28.6114 28.0102 28.6114 28.0102C28.6114 28.0102 28.9027 28.1368 28.9027 28.5422H28.3201ZM27.5854 27.4022H29.6501C29.6881 27.4022 29.7261 27.4528 29.7261 27.5035C29.7261 27.5415 29.6881 27.5795 29.6501 27.5795H27.5854C27.5474 27.5795 27.5094 27.5415 27.5094 27.4908C27.5094 27.4528 27.5474 27.4148 27.5854 27.4148V27.4022ZM27.6361 27.5922H29.5867C29.6247 27.5922 29.6627 27.6302 29.6627 27.6808C29.6627 27.7315 29.6247 27.7695 29.5867 27.7695H27.6234C27.5727 27.7695 27.5474 27.7315 27.5474 27.6808C27.5474 27.6302 27.5727 27.5922 27.6234 27.5922H27.6361ZM28.2694 26.2495H28.4214V26.3508H28.5354V26.2495H28.7001V26.3635H28.8141V26.2368H28.9661V26.4902C28.9661 26.5408 28.9407 26.5661 28.9027 26.5661H28.3454C28.3074 26.5661 28.2694 26.5408 28.2694 26.5028V26.2495Z" stroke="black" stroke-width="0.0666669"/>
<path d="M28.1934 26.9717V27.4023H27.6868V26.9717H28.1934Z" fill="#FFFF00" stroke="black" stroke-width="0.0666669"/>
<path d="M29.5361 26.9717V27.4023H29.0294V26.9717H29.5361Z" fill="#FFFF00" stroke="black" stroke-width="0.0666669"/>
<path d="M27.598 26.6421H27.75V26.7688H27.864V26.6421H28.016V26.7688H28.13V26.6421H28.282V26.8954C28.282 26.9461 28.2567 26.9714 28.2187 26.9714H27.674C27.6539 26.9714 27.6345 26.9634 27.6203 26.9492C27.606 26.9349 27.598 26.9156 27.598 26.8954V26.6421Z" fill="#FFFF00" stroke="black" stroke-width="0.0666669"/>
<path d="M28.9408 26.6421H29.0928V26.7688H29.2068V26.6421H29.3588V26.7688H29.4728V26.6421H29.6248V26.8954C29.6248 26.9461 29.5995 26.9714 29.5615 26.9714H29.0168C28.9966 26.9714 28.9773 26.9634 28.9631 26.9492C28.9488 26.9349 28.9408 26.9156 28.9408 26.8954V26.6421Z" fill="#FFFF00" stroke="black" stroke-width="0.0666669"/>
<path d="M28.5608 26.8446C28.5608 26.7686 28.6748 26.7686 28.6748 26.8446V27.0473H28.5608V26.8446Z" fill="black"/>
<path d="M27.8894 27.1234C27.8894 27.0474 27.9907 27.0474 27.9907 27.1234V27.2754H27.8894V27.1234Z" fill="black"/>
<path d="M29.2321 27.1234C29.2321 27.0474 29.3334 27.0474 29.3334 27.1234V27.2754H29.2321V27.1234Z" fill="black"/>
<path d="M30.378 34.7051C29.8926 34.2052 30.1239 33.7386 30.1239 33.7386C30.1328 33.7296 30.6335 33.4771 31.1278 33.968L30.387 34.714" fill="#FFFF00"/>
<path d="M29.4724 34.4125L29.9761 35.0377L30.351 34.6602C29.8836 34.1961 30.1687 33.7652 30.1687 33.7652C30.1776 33.7562 30.6246 33.5038 31.0739 33.9322L31.4488 33.5547L30.8022 33.0554L29.4634 34.4036L29.4724 34.4125ZM29.9583 35.0736L31.4756 33.5456C31.5024 33.5187 31.5562 33.5185 31.5921 33.5542C31.637 33.5988 31.6372 33.6526 31.6105 33.6795L30.0931 35.2075C30.0664 35.2344 30.0126 35.2346 29.9677 35.19C29.9317 35.1543 29.9315 35.1006 29.9672 35.0646L29.9583 35.0736Z" fill="#FFFF00" stroke="black" stroke-width="0.0666669"/>
<path d="M30.5027 34.5072C30.2061 34.2127 30.3305 33.9256 30.3305 33.9256C30.3305 33.9256 30.6256 33.8081 30.9132 34.0938L30.5027 34.5072ZM29.1761 34.2252L30.6309 32.7602C30.6577 32.7332 30.7204 32.742 30.7564 32.7777C30.7834 32.8044 30.7835 32.8582 30.7568 32.8851L29.3019 34.3502C29.2751 34.3771 29.2214 34.3773 29.1855 34.3416C29.1585 34.3148 29.1583 34.2611 29.1851 34.2341L29.1761 34.2252ZM29.3466 34.3231L30.7211 32.939C30.7479 32.912 30.8016 32.9119 30.8376 32.9476C30.8735 32.9833 30.8737 33.037 30.847 33.064L29.4635 34.4571C29.4278 34.493 29.383 34.4842 29.3471 34.4485C29.3111 34.4128 29.302 34.3681 29.3377 34.3321L29.3466 34.3231ZM28.8402 32.9277L28.9473 32.8198L29.0192 32.8912L29.0995 32.8103L29.0276 32.7389L29.1436 32.6221L29.2245 32.7024L29.3048 32.6215L29.215 32.5323L29.3221 32.4244L29.5018 32.6029C29.5378 32.6386 29.5379 32.6744 29.5111 32.7014L29.1184 33.0969C29.0916 33.1238 29.0469 33.1329 29.0199 33.1062L28.8402 32.9277ZM29.4934 32.7552L30.0954 33.2995L29.7116 33.6859L29.1542 33.0788L29.4844 32.7463" fill="#FFFF00"/>
<path d="M29.4934 32.7552L30.0954 33.2995L29.7116 33.6859L29.1542 33.0788L29.4844 32.7463M30.5027 34.5072C30.2061 34.2127 30.3305 33.9256 30.3305 33.9256C30.3305 33.9256 30.6256 33.8081 30.9132 34.0938L30.5027 34.5072ZM29.1761 34.2252L30.6309 32.7602C30.6577 32.7332 30.7204 32.742 30.7564 32.7777C30.7834 32.8044 30.7835 32.8582 30.7568 32.8851L29.3019 34.3502C29.2751 34.3771 29.2214 34.3773 29.1855 34.3416C29.1585 34.3148 29.1583 34.2611 29.1851 34.2341L29.1761 34.2252ZM29.3466 34.3231L30.7211 32.939C30.7479 32.912 30.8016 32.9119 30.8376 32.9476C30.8735 32.9833 30.8737 33.037 30.847 33.064L29.4635 34.4571C29.4278 34.493 29.383 34.4842 29.3471 34.4485C29.3111 34.4128 29.302 34.3681 29.3377 34.3321L29.3466 34.3231ZM28.8402 32.9277L28.9473 32.8198L29.0192 32.8912L29.0995 32.8103L29.0276 32.7389L29.1436 32.6221L29.2245 32.7024L29.3048 32.6215L29.215 32.5323L29.3221 32.4244L29.5018 32.6029C29.5378 32.6386 29.5379 32.6744 29.5111 32.7014L29.1184 33.0969C29.0916 33.1238 29.0469 33.1329 29.0199 33.1062L28.8402 32.9277Z" stroke="black" stroke-width="0.0666669"/>
<path d="M29.299 33.4906L29.6046 33.794L29.2476 34.1536L28.942 33.8501L29.299 33.4906Z" fill="#FFFF00" stroke="black" stroke-width="0.0666669"/>
<path d="M30.2451 32.5379L30.5507 32.8414L30.1937 33.2009L29.8881 32.8975L30.2451 32.5379Z" fill="#FFFF00" stroke="black" stroke-width="0.0666669"/>
<path d="M28.6458 33.6807L28.7529 33.5728L28.8427 33.6621L28.9231 33.5812L28.8332 33.4919L28.9403 33.3841L29.0302 33.4733L29.1105 33.3924L29.0206 33.3032L29.1277 33.1953L29.3075 33.3738C29.3434 33.4095 29.3436 33.4454 29.3168 33.4723L28.933 33.8588C28.9188 33.8731 28.8995 33.8812 28.8793 33.8812C28.8592 33.8813 28.8398 33.8734 28.8255 33.8592L28.6458 33.6807Z" fill="#FFFF00" stroke="black" stroke-width="0.0666669"/>
<path d="M29.5919 32.728L29.699 32.6202L29.7889 32.7094L29.8692 32.6285L29.7794 32.5393L29.8865 32.4314L29.9763 32.5207L30.0567 32.4398L29.9668 32.3505L30.0739 32.2427L30.2536 32.4212C30.2896 32.4569 30.2897 32.4927 30.2629 32.5197L29.8792 32.9062C29.865 32.9205 29.8457 32.9285 29.8255 32.9286C29.8053 32.9287 29.786 32.9207 29.7717 32.9065L29.5919 32.728Z" fill="#FFFF00" stroke="black" stroke-width="0.0666669"/>
<path d="M29.4679 33.1408C29.414 33.0872 29.4943 33.0063 29.5483 33.0599L29.6921 33.2027L29.6117 33.2836L29.4679 33.1408Z" fill="black"/>
<path d="M29.1927 33.8131C29.1387 33.7596 29.2101 33.6877 29.2641 33.7412L29.3719 33.8483L29.3005 33.9202L29.1927 33.8131Z" fill="black"/>
<path d="M30.1387 32.8605C30.0848 32.8069 30.1562 32.735 30.2101 32.7886L30.318 32.8957L30.2466 32.9676L30.1387 32.8605Z" fill="black"/>
<path d="M33.8807 22.728C33.8934 22.0314 34.3874 21.8667 34.3874 21.8667C34.4001 21.8667 34.9321 22.044 34.9321 22.7407H33.8807" fill="#FFFF00"/>
<path d="M33.4501 21.8794L33.3614 22.6774H33.8934C33.8934 22.0187 34.4001 21.9174 34.4001 21.9174C34.4128 21.9174 34.9068 22.0567 34.9194 22.6774H35.4514L35.3501 21.8667H33.4501V21.8794ZM33.3234 22.69H35.4768C35.5148 22.69 35.5528 22.728 35.5528 22.7787C35.5528 22.842 35.5148 22.88 35.4768 22.88H33.3234C33.2854 22.88 33.2474 22.842 33.2474 22.7787C33.2474 22.728 33.2854 22.69 33.3361 22.69H33.3234Z" fill="#FFFF00" stroke="black" stroke-width="0.0666669"/>
<path d="M34.1088 22.6774C34.1088 22.2594 34.4001 22.1454 34.4001 22.1454C34.4001 22.1454 34.6914 22.2721 34.6914 22.6774H34.1088ZM33.3741 21.5374H35.4388C35.4768 21.5374 35.5148 21.5881 35.5148 21.6387C35.5148 21.6767 35.4768 21.7147 35.4388 21.7147H33.3741C33.3361 21.7147 33.2981 21.6767 33.2981 21.6261C33.2981 21.5881 33.3361 21.5501 33.3741 21.5501V21.5374ZM33.4248 21.7274H35.3754C35.4134 21.7274 35.4514 21.7654 35.4514 21.8161C35.4514 21.8667 35.4134 21.9047 35.3754 21.9047H33.4121C33.3614 21.9047 33.3361 21.8667 33.3361 21.8161C33.3361 21.7654 33.3614 21.7274 33.4121 21.7274H33.4248ZM34.0581 20.3847H34.2101V20.4861H34.3241V20.3847H34.4888V20.4987H34.6028V20.3721H34.7548V20.6254C34.7548 20.6761 34.7294 20.7014 34.6914 20.7014H34.1341C34.0961 20.7014 34.0581 20.6761 34.0581 20.6381V20.3847ZM34.6408 20.7267L34.6788 21.5374H34.1341L34.1721 20.7141H34.6408" fill="#FFFF00"/>
<path d="M34.6408 20.7267L34.6788 21.5374H34.1341L34.1721 20.7141H34.6408M34.1088 22.6774C34.1088 22.2594 34.4001 22.1454 34.4001 22.1454C34.4001 22.1454 34.6914 22.2721 34.6914 22.6774H34.1088ZM33.3741 21.5374H35.4388C35.4768 21.5374 35.5148 21.5881 35.5148 21.6387C35.5148 21.6767 35.4768 21.7147 35.4388 21.7147H33.3741C33.3361 21.7147 33.2981 21.6767 33.2981 21.6261C33.2981 21.5881 33.3361 21.5501 33.3741 21.5501V21.5374ZM33.4248 21.7274H35.3754C35.4134 21.7274 35.4514 21.7654 35.4514 21.8161C35.4514 21.8667 35.4134 21.9047 35.3754 21.9047H33.4121C33.3614 21.9047 33.3361 21.8667 33.3361 21.8161C33.3361 21.7654 33.3614 21.7274 33.4121 21.7274H33.4248ZM34.0581 20.3847H34.2101V20.4861H34.3241V20.3847H34.4888V20.4987H34.6028V20.3721H34.7548V20.6254C34.7548 20.6761 34.7294 20.7014 34.6914 20.7014H34.1341C34.0961 20.7014 34.0581 20.6761 34.0581 20.6381V20.3847Z" stroke="black" stroke-width="0.0666669"/>
<path d="M33.9821 21.1069V21.5376H33.4755V21.1069H33.9821Z" fill="#FFFF00" stroke="black" stroke-width="0.0666669"/>
<path d="M35.3248 21.1069V21.5376H34.8181V21.1069H35.3248Z" fill="#FFFF00" stroke="black" stroke-width="0.0666669"/>
<path d="M33.3867 20.7773H33.5387V20.904H33.6527V20.7773H33.8047V20.904H33.9187V20.7773H34.0707V21.0307C34.0707 21.0813 34.0454 21.1067 34.0074 21.1067H33.4627C33.4426 21.1067 33.4232 21.0987 33.409 21.0844C33.3947 21.0702 33.3867 21.0508 33.3867 21.0307V20.7773Z" fill="#FFFF00" stroke="black" stroke-width="0.0666669"/>
<path d="M34.7295 20.7773H34.8815V20.904H34.9955V20.7773H35.1475V20.904H35.2615V20.7773H35.4135V21.0307C35.4135 21.0813 35.3882 21.1067 35.3502 21.1067H34.8055C34.7853 21.1067 34.766 21.0987 34.7518 21.0844C34.7375 21.0702 34.7295 21.0508 34.7295 21.0307V20.7773Z" fill="#FFFF00" stroke="black" stroke-width="0.0666669"/>
<path d="M34.3495 20.9799C34.3495 20.9039 34.4635 20.9039 34.4635 20.9799V21.1825H34.3495V20.9799Z" fill="black"/>
<path d="M33.6781 21.2587C33.6781 21.1827 33.7794 21.1827 33.7794 21.2587V21.4107H33.6781V21.2587Z" fill="black"/>
<path d="M35.0208 21.2587C35.0208 21.1827 35.1221 21.1827 35.1221 21.2587V21.4107H35.0208V21.2587Z" fill="black"/>
<path d="M40.6829 22.728C40.6702 22.0314 40.1762 21.8667 40.1762 21.8667C40.1635 21.8667 39.6315 22.044 39.6315 22.7407H40.6829" fill="#FFFF00"/>
<path d="M41.1135 21.8794L41.2022 22.6774H40.6702C40.6702 22.0187 40.1635 21.9174 40.1635 21.9174C40.1508 21.9174 39.6568 22.0567 39.6442 22.6774H39.1122L39.2135 21.8667H41.1135V21.8794ZM41.2402 22.69H39.0868C39.0488 22.69 39.0108 22.728 39.0108 22.7787C39.0108 22.842 39.0488 22.88 39.0868 22.88H41.2402C41.2782 22.88 41.3162 22.842 41.3162 22.7787C41.3162 22.728 41.2782 22.69 41.2275 22.69H41.2402Z" fill="#FFFF00" stroke="black" stroke-width="0.0666669"/>
<path d="M40.4548 22.6774C40.4548 22.2594 40.1635 22.1454 40.1635 22.1454C40.1635 22.1454 39.8722 22.2721 39.8722 22.6774H40.4548ZM41.1895 21.5374H39.1248C39.0868 21.5374 39.0488 21.5881 39.0488 21.6387C39.0488 21.6767 39.0868 21.7147 39.1248 21.7147H41.1895C41.2275 21.7147 41.2655 21.6767 41.2655 21.6261C41.2655 21.5881 41.2275 21.5501 41.1895 21.5501V21.5374ZM41.1388 21.7274H39.1882C39.1502 21.7274 39.1122 21.7654 39.1122 21.8161C39.1122 21.8667 39.1502 21.9047 39.1882 21.9047H41.1515C41.2022 21.9047 41.2275 21.8667 41.2275 21.8161C41.2275 21.7654 41.2022 21.7274 41.1515 21.7274H41.1388ZM40.5055 20.3847H40.3535V20.4861H40.2395V20.3847H40.0748V20.4987H39.9608V20.3721H39.8088V20.6254C39.8088 20.6761 39.8342 20.7014 39.8722 20.7014H40.4295C40.4675 20.7014 40.5055 20.6761 40.5055 20.6381V20.3847ZM39.9228 20.7267L39.8848 21.5374H40.4295L40.3915 20.7141H39.9228" fill="#FFFF00"/>
<path d="M39.9228 20.7267L39.8848 21.5374H40.4295L40.3915 20.7141H39.9228M40.4548 22.6774C40.4548 22.2594 40.1635 22.1454 40.1635 22.1454C40.1635 22.1454 39.8722 22.2721 39.8722 22.6774H40.4548ZM41.1895 21.5374H39.1248C39.0868 21.5374 39.0488 21.5881 39.0488 21.6387C39.0488 21.6767 39.0868 21.7147 39.1248 21.7147H41.1895C41.2275 21.7147 41.2655 21.6767 41.2655 21.6261C41.2655 21.5881 41.2275 21.5501 41.1895 21.5501V21.5374ZM41.1388 21.7274H39.1882C39.1502 21.7274 39.1122 21.7654 39.1122 21.8161C39.1122 21.8667 39.1502 21.9047 39.1882 21.9047H41.1515C41.2022 21.9047 41.2275 21.8667 41.2275 21.8161C41.2275 21.7654 41.2022 21.7274 41.1515 21.7274H41.1388ZM40.5055 20.3847H40.3535V20.4861H40.2395V20.3847H40.0748V20.4987H39.9608V20.3721H39.8088V20.6254C39.8088 20.6761 39.8342 20.7014 39.8722 20.7014H40.4295C40.4675 20.7014 40.5055 20.6761 40.5055 20.6381V20.3847Z" stroke="black" stroke-width="0.0666669"/>
<path d="M40.5815 21.1069V21.5376H41.0881V21.1069H40.5815Z" fill="#FFFF00" stroke="black" stroke-width="0.0666669"/>
<path d="M39.2388 21.1069V21.5376H39.7455V21.1069H39.2388Z" fill="#FFFF00" stroke="black" stroke-width="0.0666669"/>
<path d="M41.1769 20.7773H41.0249V20.904H40.9109V20.7773H40.7589V20.904H40.6449V20.7773H40.4929V21.0307C40.4929 21.0813 40.5182 21.1067 40.5562 21.1067H41.1009C41.121 21.1067 41.1404 21.0987 41.1546 21.0844C41.1689 21.0702 41.1769 21.0508 41.1769 21.0307V20.7773Z" fill="#FFFF00" stroke="black" stroke-width="0.0666669"/>
<path d="M39.8342 20.7773H39.6822V20.904H39.5682V20.7773H39.4162V20.904H39.3022V20.7773H39.1502V21.0307C39.1502 21.0813 39.1756 21.1067 39.2136 21.1067H39.7582C39.7784 21.1067 39.7977 21.0987 39.812 21.0844C39.8262 21.0702 39.8342 21.0508 39.8342 21.0307V20.7773Z" fill="#FFFF00" stroke="black" stroke-width="0.0666669"/>
<path d="M40.2142 20.9799C40.2142 20.9039 40.1002 20.9039 40.1002 20.9799V21.1825H40.2142V20.9799Z" fill="black"/>
<path d="M40.8855 21.2587C40.8855 21.1827 40.7842 21.1827 40.7842 21.2587V21.4107H40.8855V21.2587Z" fill="black"/>
<path d="M39.5428 21.2587C39.5428 21.1827 39.4415 21.1827 39.4415 21.2587V21.4107H39.5428V21.2587Z" fill="black"/>
<path d="M40.6829 28.5928C40.6702 27.8961 40.1762 27.7314 40.1762 27.7314C40.1635 27.7314 39.6315 27.9088 39.6315 28.6054H40.6829" fill="#FFFF00"/>
<path d="M41.1135 27.7441L41.2022 28.5421H40.6702C40.6702 27.8834 40.1635 27.7821 40.1635 27.7821C40.1508 27.7821 39.6568 27.9214 39.6442 28.5421H39.1122L39.2135 27.7314H41.1135V27.7441ZM41.2402 28.5548H39.0868C39.0488 28.5548 39.0108 28.5928 39.0108 28.6434C39.0108 28.7068 39.0488 28.7448 39.0868 28.7448H41.2402C41.2782 28.7448 41.3162 28.7068 41.3162 28.6434C41.3162 28.5928 41.2782 28.5548 41.2275 28.5548H41.2402Z" fill="#FFFF00" stroke="black" stroke-width="0.0666669"/>
<path d="M40.4548 28.5422C40.4548 28.1242 40.1635 28.0102 40.1635 28.0102C40.1635 28.0102 39.8722 28.1368 39.8722 28.5422H40.4548ZM41.1895 27.4022H39.1248C39.0868 27.4022 39.0488 27.4528 39.0488 27.5035C39.0488 27.5415 39.0868 27.5795 39.1248 27.5795H41.1895C41.2275 27.5795 41.2655 27.5415 41.2655 27.4908C41.2655 27.4528 41.2275 27.4148 41.1895 27.4148V27.4022ZM41.1388 27.5922H39.1882C39.1502 27.5922 39.1122 27.6302 39.1122 27.6808C39.1122 27.7315 39.1502 27.7695 39.1882 27.7695H41.1515C41.2022 27.7695 41.2275 27.7315 41.2275 27.6808C41.2275 27.6302 41.2022 27.5922 41.1515 27.5922H41.1388ZM40.5055 26.2495H40.3535V26.3508H40.2395V26.2495H40.0748V26.3635H39.9608V26.2368H39.8088V26.4902C39.8088 26.5408 39.8342 26.5661 39.8722 26.5661H40.4295C40.4675 26.5661 40.5055 26.5408 40.5055 26.5028V26.2495ZM39.9228 26.5915L39.8848 27.4022H40.4295L40.3915 26.5788H39.9228" fill="#FFFF00"/>
<path d="M39.9228 26.5915L39.8848 27.4022H40.4295L40.3915 26.5788H39.9228M40.4548 28.5422C40.4548 28.1242 40.1635 28.0102 40.1635 28.0102C40.1635 28.0102 39.8722 28.1368 39.8722 28.5422H40.4548ZM41.1895 27.4022H39.1248C39.0868 27.4022 39.0488 27.4528 39.0488 27.5035C39.0488 27.5415 39.0868 27.5795 39.1248 27.5795H41.1895C41.2275 27.5795 41.2655 27.5415 41.2655 27.4908C41.2655 27.4528 41.2275 27.4148 41.1895 27.4148V27.4022ZM41.1388 27.5922H39.1882C39.1502 27.5922 39.1122 27.6302 39.1122 27.6808C39.1122 27.7315 39.1502 27.7695 39.1882 27.7695H41.1515C41.2022 27.7695 41.2275 27.7315 41.2275 27.6808C41.2275 27.6302 41.2022 27.5922 41.1515 27.5922H41.1388ZM40.5055 26.2495H40.3535V26.3508H40.2395V26.2495H40.0748V26.3635H39.9608V26.2368H39.8088V26.4902C39.8088 26.5408 39.8342 26.5661 39.8722 26.5661H40.4295C40.4675 26.5661 40.5055 26.5408 40.5055 26.5028V26.2495Z" stroke="black" stroke-width="0.0666669"/>
<path d="M40.5815 26.9717V27.4023H41.0881V26.9717H40.5815Z" fill="#FFFF00" stroke="black" stroke-width="0.0666669"/>
<path d="M39.2388 26.9717V27.4023H39.7455V26.9717H39.2388Z" fill="#FFFF00" stroke="black" stroke-width="0.0666669"/>
<path d="M41.1769 26.6421H41.0249V26.7688H40.9109V26.6421H40.7589V26.7688H40.6449V26.6421H40.4929V26.8954C40.4929 26.9461 40.5182 26.9714 40.5562 26.9714H41.1009C41.121 26.9714 41.1404 26.9634 41.1546 26.9492C41.1689 26.9349 41.1769 26.9156 41.1769 26.8954V26.6421Z" fill="#FFFF00" stroke="black" stroke-width="0.0666669"/>
<path d="M39.8341 26.6421H39.6821V26.7688H39.5681V26.6421H39.4161V26.7688H39.3021V26.6421H39.1501V26.8954C39.1501 26.9461 39.1754 26.9714 39.2134 26.9714H39.7581C39.7783 26.9714 39.7976 26.9634 39.8118 26.9492C39.8261 26.9349 39.8341 26.9156 39.8341 26.8954V26.6421Z" fill="#FFFF00" stroke="black" stroke-width="0.0666669"/>
<path d="M40.2141 26.8446C40.2141 26.7686 40.1001 26.7686 40.1001 26.8446V27.0473H40.2141V26.8446Z" fill="black"/>
<path d="M40.8855 27.1234C40.8855 27.0474 40.7842 27.0474 40.7842 27.1234V27.2754H40.8855V27.1234Z" fill="black"/>
<path d="M39.5428 27.1234C39.5428 27.0474 39.4415 27.0474 39.4415 27.1234V27.2754H39.5428V27.1234Z" fill="black"/>
<path d="M38.3969 34.7051C38.8823 34.2052 38.651 33.7386 38.651 33.7386C38.6421 33.7296 38.1414 33.4771 37.6471 33.968L38.3879 34.714" fill="#FFFF00"/>
<path d="M39.3026 34.4125L38.7988 35.0377L38.4239 34.6602C38.8913 34.1961 38.6062 33.7652 38.6062 33.7652C38.5973 33.7562 38.1503 33.5038 37.701 33.9322L37.3261 33.5547L37.9727 33.0554L39.3115 34.4036L39.3026 34.4125ZM38.8166 35.0736L37.2993 33.5456C37.2725 33.5187 37.2187 33.5185 37.1828 33.5542C37.1379 33.5988 37.1377 33.6526 37.1644 33.6795L38.6818 35.2075C38.7085 35.2344 38.7623 35.2346 38.8072 35.19C38.8432 35.1543 38.8434 35.1006 38.8077 35.0646L38.8166 35.0736Z" fill="#FFFF00" stroke="black" stroke-width="0.0666669"/>
<path d="M38.2722 34.5072C38.5688 34.2127 38.4444 33.9256 38.4444 33.9256C38.4444 33.9256 38.1493 33.8081 37.8617 34.0938L38.2722 34.5072ZM39.5988 34.2252L38.144 32.7602C38.1172 32.7332 38.0545 32.742 38.0185 32.7777C37.9915 32.8044 37.9914 32.8582 38.0181 32.8851L39.473 34.3502C39.4998 34.3771 39.5535 34.3773 39.5894 34.3416C39.6164 34.3148 39.6166 34.2611 39.5898 34.2341L39.5988 34.2252ZM39.4283 34.3231L38.0538 32.939C38.027 32.912 37.9733 32.9119 37.9373 32.9476C37.9014 32.9833 37.9012 33.037 37.9279 33.064L39.3114 34.4571C39.3471 34.493 39.3919 34.4842 39.4279 34.4485C39.4638 34.4128 39.4729 34.3681 39.4372 34.3321L39.4283 34.3231ZM39.9347 32.9277L39.8276 32.8198L39.7557 32.8912L39.6754 32.8103L39.7473 32.7389L39.6313 32.6221L39.5504 32.7024L39.4701 32.6215L39.5599 32.5323L39.4528 32.4244L39.2731 32.6029C39.2371 32.6386 39.237 32.6744 39.2638 32.7014L39.6565 33.0969C39.6833 33.1238 39.728 33.1329 39.755 33.1062L39.9347 32.9277ZM39.2815 32.7552L38.6795 33.2995L39.0633 33.6859L39.6207 33.0788L39.2905 32.7463" fill="#FFFF00"/>
<path d="M39.2815 32.7552L38.6795 33.2995L39.0633 33.6859L39.6207 33.0788L39.2905 32.7463M38.2722 34.5072C38.5688 34.2127 38.4444 33.9256 38.4444 33.9256C38.4444 33.9256 38.1493 33.8081 37.8617 34.0938L38.2722 34.5072ZM39.5988 34.2252L38.144 32.7602C38.1172 32.7332 38.0545 32.742 38.0185 32.7777C37.9915 32.8044 37.9914 32.8582 38.0181 32.8851L39.473 34.3502C39.4998 34.3771 39.5535 34.3773 39.5894 34.3416C39.6164 34.3148 39.6166 34.2611 39.5898 34.2341L39.5988 34.2252ZM39.4283 34.3231L38.0538 32.939C38.027 32.912 37.9733 32.9119 37.9373 32.9476C37.9014 32.9833 37.9012 33.037 37.9279 33.064L39.3114 34.4571C39.3471 34.493 39.3919 34.4842 39.4279 34.4485C39.4638 34.4128 39.4729 34.3681 39.4372 34.3321L39.4283 34.3231ZM39.9347 32.9277L39.8276 32.8198L39.7557 32.8912L39.6754 32.8103L39.7473 32.7389L39.6313 32.6221L39.5504 32.7024L39.4701 32.6215L39.5599 32.5323L39.4528 32.4244L39.2731 32.6029C39.2371 32.6386 39.237 32.6744 39.2638 32.7014L39.6565 33.0969C39.6833 33.1238 39.728 33.1329 39.755 33.1062L39.9347 32.9277Z" stroke="black" stroke-width="0.0666669"/>
<path d="M39.4759 33.4906L39.1703 33.794L39.5273 34.1536L39.8329 33.8501L39.4759 33.4906Z" fill="#FFFF00" stroke="black" stroke-width="0.0666669"/>
<path d="M38.5298 32.5379L38.2242 32.8414L38.5813 33.2009L38.8868 32.8975L38.5298 32.5379Z" fill="#FFFF00" stroke="black" stroke-width="0.0666669"/>
<path d="M40.1292 33.6807L40.022 33.5728L39.9322 33.6621L39.8518 33.5812L39.9417 33.4919L39.8346 33.3841L39.7447 33.4733L39.6644 33.3924L39.7543 33.3032L39.6472 33.1953L39.4674 33.3738C39.4315 33.4095 39.4313 33.4454 39.4581 33.4723L39.8419 33.8588C39.8561 33.8731 39.8754 33.8812 39.8956 33.8812C39.9157 33.8813 39.9351 33.8734 39.9494 33.8592L40.1292 33.6807Z" fill="#FFFF00" stroke="black" stroke-width="0.0666669"/>
<path d="M39.183 32.728L39.0759 32.6202L38.986 32.7094L38.9057 32.6285L38.9956 32.5393L38.8884 32.4314L38.7986 32.5207L38.7182 32.4398L38.8081 32.3505L38.701 32.2427L38.5213 32.4212C38.4853 32.4569 38.4852 32.4927 38.512 32.5197L38.8957 32.9062C38.9099 32.9205 38.9293 32.9285 38.9494 32.9286C38.9696 32.9287 38.9889 32.9207 39.0032 32.9065L39.183 32.728Z" fill="#FFFF00" stroke="black" stroke-width="0.0666669"/>
<path d="M39.307 33.1408C39.3609 33.0872 39.2806 33.0063 39.2266 33.0599L39.0828 33.2027L39.1632 33.2836L39.307 33.1408Z" fill="black"/>
<path d="M39.5822 33.8131C39.6362 33.7596 39.5648 33.6877 39.5108 33.7412L39.403 33.8483L39.4744 33.9202L39.5822 33.8131Z" fill="black"/>
<path d="M38.6362 32.8605C38.6901 32.8069 38.6187 32.735 38.5648 32.7886L38.4569 32.8957L38.5283 32.9676L38.6362 32.8605Z" fill="black"/>
<path d="M33.4628 28.8079C33.4605 29.0753 33.5602 29.3335 33.7415 29.5299C33.8261 29.6245 33.9295 29.7004 34.0451 29.7528C34.1607 29.8051 34.2859 29.8328 34.4128 29.8339C34.6788 29.8339 34.9195 29.7073 35.0841 29.5299C35.2655 29.3335 35.3651 29.0753 35.3628 28.8079V27.4399H33.4628V28.8079Z" fill="#003399"/>
<path d="M33.9062 28.149C34.0111 28.149 34.0962 28.064 34.0962 27.959C34.0962 27.8541 34.0111 27.769 33.9062 27.769C33.8013 27.769 33.7162 27.8541 33.7162 27.959C33.7162 28.064 33.8013 28.149 33.9062 28.149Z" fill="white"/>
<path d="M34.9575 28.149C35.0624 28.149 35.1475 28.064 35.1475 27.959C35.1475 27.8541 35.0624 27.769 34.9575 27.769C34.8525 27.769 34.7675 27.8541 34.7675 27.959C34.7675 28.064 34.8525 28.149 34.9575 28.149Z" fill="white"/>
<path d="M34.4255 28.6559C34.5304 28.6559 34.6155 28.5708 34.6155 28.4659C34.6155 28.3609 34.5304 28.2759 34.4255 28.2759C34.3205 28.2759 34.2355 28.3609 34.2355 28.4659C34.2355 28.5708 34.3205 28.6559 34.4255 28.6559Z" fill="white"/>
<path d="M33.9062 29.1881C34.0111 29.1881 34.0962 29.103 34.0962 28.9981C34.0962 28.8932 34.0111 28.8081 33.9062 28.8081C33.8013 28.8081 33.7162 28.8932 33.7162 28.9981C33.7162 29.103 33.8013 29.1881 33.9062 29.1881Z" fill="white"/>
<path d="M34.9575 29.1881C35.0624 29.1881 35.1475 29.103 35.1475 28.9981C35.1475 28.8932 35.0624 28.8081 34.9575 28.8081C34.8525 28.8081 34.7675 28.8932 34.7675 28.9981C34.7675 29.103 34.8525 29.1881 34.9575 29.1881Z" fill="white"/>
<path d="M33.4628 25.5145C33.4605 25.7818 33.5602 26.04 33.7415 26.2365C33.8261 26.3311 33.9295 26.407 34.0451 26.4593C34.1607 26.5117 34.2859 26.5393 34.4128 26.5405C34.6788 26.5405 34.9195 26.4138 35.0841 26.2365C35.2655 26.04 35.3651 25.7818 35.3628 25.5145V24.1465H33.4628V25.5145Z" fill="#003399"/>
<path d="M33.9062 24.8556C34.0111 24.8556 34.0962 24.7705 34.0962 24.6656C34.0962 24.5607 34.0111 24.4756 33.9062 24.4756C33.8013 24.4756 33.7162 24.5607 33.7162 24.6656C33.7162 24.7705 33.8013 24.8556 33.9062 24.8556Z" fill="white"/>
<path d="M34.9575 24.8556C35.0624 24.8556 35.1475 24.7705 35.1475 24.6656C35.1475 24.5607 35.0624 24.4756 34.9575 24.4756C34.8525 24.4756 34.7675 24.5607 34.7675 24.6656C34.7675 24.7705 34.8525 24.8556 34.9575 24.8556Z" fill="white"/>
<path d="M34.4255 25.3624C34.5304 25.3624 34.6155 25.2774 34.6155 25.1724C34.6155 25.0675 34.5304 24.9824 34.4255 24.9824C34.3205 24.9824 34.2355 25.0675 34.2355 25.1724C34.2355 25.2774 34.3205 25.3624 34.4255 25.3624Z" fill="white"/>
<path d="M33.9062 25.8946C34.0111 25.8946 34.0962 25.8096 34.0962 25.7046C34.0962 25.5997 34.0111 25.5146 33.9062 25.5146C33.8013 25.5146 33.7162 25.5997 33.7162 25.7046C33.7162 25.8096 33.8013 25.8946 33.9062 25.8946Z" fill="white"/>
<path d="M34.9575 25.8946C35.0624 25.8946 35.1475 25.8096 35.1475 25.7046C35.1475 25.5997 35.0624 25.5146 34.9575 25.5146C34.8525 25.5146 34.7675 25.5997 34.7675 25.7046C34.7675 25.8096 34.8525 25.8946 34.9575 25.8946Z" fill="white"/>
<path d="M30.8282 28.8079C30.8259 29.0753 30.9255 29.3335 31.1068 29.5299C31.1914 29.6245 31.2948 29.7004 31.4104 29.7528C31.526 29.8051 31.6513 29.8328 31.7782 29.8339C32.0442 29.8339 32.2848 29.7073 32.4495 29.5299C32.6308 29.3335 32.7305 29.0753 32.7282 28.8079V27.4399H30.8282V28.8079Z" fill="#003399"/>
<path d="M31.2715 28.149C31.3765 28.149 31.4615 28.064 31.4615 27.959C31.4615 27.8541 31.3765 27.769 31.2715 27.769C31.1666 27.769 31.0815 27.8541 31.0815 27.959C31.0815 28.064 31.1666 28.149 31.2715 28.149Z" fill="white"/>
<path d="M32.3228 28.149C32.4277 28.149 32.5128 28.064 32.5128 27.959C32.5128 27.8541 32.4277 27.769 32.3228 27.769C32.2179 27.769 32.1328 27.8541 32.1328 27.959C32.1328 28.064 32.2179 28.149 32.3228 28.149Z" fill="white"/>
<path d="M31.7908 28.6559C31.8958 28.6559 31.9808 28.5708 31.9808 28.4659C31.9808 28.3609 31.8958 28.2759 31.7908 28.2759C31.6859 28.2759 31.6008 28.3609 31.6008 28.4659C31.6008 28.5708 31.6859 28.6559 31.7908 28.6559Z" fill="white"/>
<path d="M31.2715 29.1881C31.3765 29.1881 31.4615 29.103 31.4615 28.9981C31.4615 28.8932 31.3765 28.8081 31.2715 28.8081C31.1666 28.8081 31.0815 28.8932 31.0815 28.9981C31.0815 29.103 31.1666 29.1881 31.2715 29.1881Z" fill="white"/>
<path d="M32.3228 29.1881C32.4277 29.1881 32.5128 29.103 32.5128 28.9981C32.5128 28.8932 32.4277 28.8081 32.3228 28.8081C32.2179 28.8081 32.1328 28.8932 32.1328 28.9981C32.1328 29.103 32.2179 29.1881 32.3228 29.1881Z" fill="white"/>
<path d="M36.0975 28.8079C36.0952 29.0753 36.1948 29.3335 36.3761 29.5299C36.4607 29.6245 36.5641 29.7004 36.6797 29.7528C36.7953 29.8051 36.9206 29.8328 37.0475 29.8339C37.3135 29.8339 37.5541 29.7073 37.7188 29.5299C37.9001 29.3335 37.9997 29.0753 37.9975 28.8079V27.4399H36.0975V28.8079Z" fill="#003399"/>
<path d="M36.5408 28.149C36.6458 28.149 36.7308 28.064 36.7308 27.959C36.7308 27.8541 36.6458 27.769 36.5408 27.769C36.4359 27.769 36.3508 27.8541 36.3508 27.959C36.3508 28.064 36.4359 28.149 36.5408 28.149Z" fill="white"/>
<path d="M37.5921 28.149C37.697 28.149 37.7821 28.064 37.7821 27.959C37.7821 27.8541 37.697 27.769 37.5921 27.769C37.4872 27.769 37.4021 27.8541 37.4021 27.959C37.4021 28.064 37.4872 28.149 37.5921 28.149Z" fill="white"/>
<path d="M37.0601 28.6559C37.1651 28.6559 37.2501 28.5708 37.2501 28.4659C37.2501 28.3609 37.1651 28.2759 37.0601 28.2759C36.9552 28.2759 36.8701 28.3609 36.8701 28.4659C36.8701 28.5708 36.9552 28.6559 37.0601 28.6559Z" fill="white"/>
<path d="M36.5408 29.1881C36.6458 29.1881 36.7308 29.103 36.7308 28.9981C36.7308 28.8932 36.6458 28.8081 36.5408 28.8081C36.4359 28.8081 36.3508 28.8932 36.3508 28.9981C36.3508 29.103 36.4359 29.1881 36.5408 29.1881Z" fill="white"/>
<path d="M37.5921 29.1881C37.697 29.1881 37.7821 29.103 37.7821 28.9981C37.7821 28.8932 37.697 28.8081 37.5921 28.8081C37.4872 28.8081 37.4021 28.8932 37.4021 28.9981C37.4021 29.103 37.4872 29.1881 37.5921 29.1881Z" fill="white"/>
<path d="M33.4628 32.076C33.4605 32.3434 33.5602 32.6015 33.7415 32.798C33.8261 32.8926 33.9295 32.9685 34.0451 33.0208C34.1607 33.0732 34.2859 33.1008 34.4128 33.102C34.6788 33.102 34.9195 32.9753 35.0841 32.798C35.2655 32.6015 35.3651 32.3434 35.3628 32.076V30.708H33.4628V32.076Z" fill="#003399"/>
<path d="M33.9062 31.4171C34.0111 31.4171 34.0962 31.332 34.0962 31.2271C34.0962 31.1222 34.0111 31.0371 33.9062 31.0371C33.8013 31.0371 33.7162 31.1222 33.7162 31.2271C33.7162 31.332 33.8013 31.4171 33.9062 31.4171Z" fill="white"/>
<path d="M34.9575 31.4171C35.0624 31.4171 35.1475 31.332 35.1475 31.2271C35.1475 31.1222 35.0624 31.0371 34.9575 31.0371C34.8525 31.0371 34.7675 31.1222 34.7675 31.2271C34.7675 31.332 34.8525 31.4171 34.9575 31.4171Z" fill="white"/>
<path d="M34.4255 31.9239C34.5304 31.9239 34.6155 31.8389 34.6155 31.7339C34.6155 31.629 34.5304 31.5439 34.4255 31.5439C34.3205 31.5439 34.2355 31.629 34.2355 31.7339C34.2355 31.8389 34.3205 31.9239 34.4255 31.9239Z" fill="white"/>
<path d="M33.9062 32.4562C34.0111 32.4562 34.0962 32.3711 34.0962 32.2662C34.0962 32.1612 34.0111 32.0762 33.9062 32.0762C33.8013 32.0762 33.7162 32.1612 33.7162 32.2662C33.7162 32.3711 33.8013 32.4562 33.9062 32.4562Z" fill="white"/>
<path d="M34.9575 32.4562C35.0624 32.4562 35.1475 32.3711 35.1475 32.2662C35.1475 32.1612 35.0624 32.0762 34.9575 32.0762C34.8525 32.0762 34.7675 32.1612 34.7675 32.2662C34.7675 32.3711 34.8525 32.4562 34.9575 32.4562Z" fill="white"/>
</g>
</g>
<defs>
<filter id="filter0_d_287_1719" x="0" y="0" width="84" height="65" filterUnits="userSpaceOnUse" color-interpolation-filters="sRGB">
<feFlood flood-opacity="0" result="BackgroundImageFix"/>
<feColorMatrix in="SourceAlpha" type="matrix" values="0 0 0 0 0 0 0 0 0 0 0 0 0 0 0 0 0 0 127 0" result="hardAlpha"/>
<feOffset dy="4"/>
<feGaussianBlur stdDeviation="2"/>
<feComposite in2="hardAlpha" operator="out"/>
<feColorMatrix type="matrix" values="0 0 0 0 0 0 0 0 0 0 0 0 0 0 0 0 0 0 0.25 0"/>
<feBlend mode="normal" in2="BackgroundImageFix" result="effect1_dropShadow_287_1719"/>
<feBlend mode="normal" in="SourceGraphic" in2="effect1_dropShadow_287_1719" result="shape"/>
</filter>
<clipPath id="clip0_287_1719">
<rect x="4" width="76" height="57" rx="4" fill="white"/>
</clipPath>
</defs>
</svg>
