<svg width="155" height="155" viewBox="0 0 155 155" fill="none" xmlns="http://www.w3.org/2000/svg">
<rect width="155" height="155" rx="20" fill="url(#paint0_linear_37_45)"/>
<g clip-path="url(#clip0_37_45)">
<path d="M95.3687 19.8296C89.4812 28.0151 87.9366 37.9087 97.205 37.0837C104.727 36.415 102.314 27.0864 95.3691 19.8296H95.3687ZM57.1759 20.8218C51.8337 29.2058 50.9416 39.141 60.1447 37.9911C67.6134 37.0574 64.5906 27.8254 57.1759 20.8213V20.8218ZM126.59 39.5104C119.728 47.0423 116.995 56.701 126.336 56.796C133.918 56.8734 132.637 47.3851 126.59 39.5101V39.5104ZM27.1953 40.3165C21.9688 48.4795 21.6875 57.973 29.2656 57.4707C38.6031 56.8511 34.8494 47.4141 27.1953 40.3165ZM95.1934 42.3937C77.8153 42.9548 79.4678 71.8435 96.0034 71.3144C112.259 70.7965 112.29 41.844 95.1931 42.3939L95.1934 42.3937ZM61.7262 42.8511C61.4675 42.855 61.2112 42.8719 60.945 42.89C43.6262 44.0769 47.2184 72.8657 63.6991 71.7411C79.6469 70.6546 78.0341 42.6154 61.7262 42.8511ZM35.8278 63.5481C35.312 63.5428 34.7964 63.566 34.2847 63.6176C17.0516 65.3514 22.3394 94.0048 38.7378 92.36C54.355 90.7948 51.4394 63.691 35.8278 63.5481ZM122.898 63.8812C105.507 63.6265 104.621 92.5311 121.17 92.7787C137.437 93.0233 140.009 64.1337 122.898 63.8812ZM77.5856 80.5544C59.7669 80.8665 73.5269 95.4834 42.0294 103.98C17.6159 110.565 32.4019 130.405 53.2981 130.474C64.7675 130.512 68.8606 123.326 78.2497 123.358C88.9109 123.394 89.7634 129.841 105.368 129.893C125.293 129.958 136.826 110 114.031 103.22C85.0075 94.5884 97.1559 80.7008 78.4644 80.5547C78.1653 80.5527 77.8684 80.5495 77.5856 80.5544Z" fill="white"/>
</g>
<defs>
<linearGradient id="paint0_linear_37_45" x1="-8.84997e-08" y1="77" x2="155" y2="77" gradientUnits="userSpaceOnUse">
<stop stop-color="#974416"/>
<stop offset="1" stop-color="#E65100"/>
</linearGradient>
<clipPath id="clip0_37_45">
<rect width="132" height="125" fill="white" transform="translate(11 15)"/>
</clipPath>
</defs>
</svg>
